<svg xmlns="http://www.w3.org/2000/svg" viewBox="0 0 36.47 34.51"><defs><style>.cls-1{fill:#fff;}</style></defs><g id="Слой_2" data-name="Слой 2"><g id="Слой_18" data-name="Слой 18"><path class="cls-1" d="M9.76,22a.71.71,0,1,0-1-.26A.71.71,0,0,0,9.76,22Z"/><path class="cls-1" d="M6.84,26.87l3.58,6.21a2.85,2.85,0,1,0,4.94-2.85l-2.14-3.7,1.85-1.07a.7.7,0,0,0,.26-1l-.92-1.6,13.64-2.68A2.14,2.14,0,0,0,29.78,17l-2.37-4.1,1.52-2.29a.72.72,0,0,0,0-.75L27.52,7.4a.7.7,0,0,0-.65-.35l-2.75.16L21.5,2.66a2.13,2.13,0,0,0-1.83-1.07h0a2.11,2.11,0,0,0-1.8,1L8.54,14.43l-6,3.49a5,5,0,0,0,4.35,9ZM14.12,31a1.42,1.42,0,0,1-2.46,1.42L8.1,26.2l2.46-1.42C14.68,31.92,14.06,30.83,14.12,31ZM12.51,25.3l-.71-1.23L13,23.35l.71,1.24Zm14-16.8,1,1.7-.88,1.33-1.7-2.94ZM19,3.36A.68.68,0,0,1,19.66,3a.69.69,0,0,1,.6.35l8.29,14.35a.71.71,0,0,1-.6,1.07,2.11,2.11,0,0,0-.39.07L18.79,3.68ZM17.85,4.89l8.23,14.26L13.65,21.58,9.88,15ZM1.9,24a3.54,3.54,0,0,1,1.31-4.86L8.76,16l3.56,6.17L6.77,25.33A3.58,3.58,0,0,1,1.9,24Z"/><path class="cls-1" d="M7.55,22.41a.71.71,0,0,0-1-.26l-1.24.71a.72.72,0,0,1-1-.26.71.71,0,1,0-1.23.71,2.13,2.13,0,0,0,2.91.78l1.24-.71A.71.71,0,0,0,7.55,22.41Z"/><path class="cls-1" d="M35.41,3.12l-4,2.2a.72.72,0,0,0-.28,1,.71.71,0,0,0,1,.28l4-2.21a.71.71,0,1,0-.69-1.24Z"/><path class="cls-1" d="M35,10.49l-2.75-.73a.7.7,0,0,0-.87.5.71.71,0,0,0,.5.87l2.75.74A.71.71,0,1,0,35,10.49Z"/><path class="cls-1" d="M28.08.53l-.74,2.75a.71.71,0,0,0,.5.87.72.72,0,0,0,.88-.5L29.45.9A.71.71,0,1,0,28.08.53Z"/></g></g></svg>