<svg xmlns="http://www.w3.org/2000/svg" viewBox="0 0 169.72 192.39"><defs><style>.cls-1{fill:#fff;}.cls-2{fill:#e5e009;}</style></defs><g id="Слой_2" data-name="Слой 2"><g id="Слой_1-2" data-name="Слой 1"><path class="cls-1" d="M139.55,40.9v66.85a54.49,54.49,0,0,1-54.49,54.49h0a54.49,54.49,0,0,1-54.49-54.49V40.9A15.08,15.08,0,0,0,15.48,25.82h-.41A15.08,15.08,0,0,0,0,40.9v66.63a84.86,84.86,0,0,0,84.86,84.86h0a84.86,84.86,0,0,0,84.86-84.86V40.9a15.08,15.08,0,0,0-15.08-15.08h0A15.08,15.08,0,0,0,139.55,40.9Z"/><rect class="cls-2" x="69.78" width="30.16" height="62.07" rx="15.08"/></g></g></svg>