<svg xmlns="http://www.w3.org/2000/svg" viewBox="0 0 31.46 36.61"><defs><style>.cls-1{fill:#fff;}</style></defs><g id="Слой_2" data-name="Слой 2"><g id="Слой_19" data-name="Слой 19"><path class="cls-1" d="M31.45,20.91a.72.72,0,0,0-1.34-.33c-.4.7-2,1.09-3.48,1.22a11.46,11.46,0,0,0,.11-9,9,9,0,0,0-2.56-3.4.75.75,0,0,0-.79,0,.73.73,0,0,0-.35.7,2.27,2.27,0,0,1-1.36,2.3,3.47,3.47,0,0,1-3.86-.52c-1.9-1.79-1.73-5.76.46-10.88a.73.73,0,0,0-.1-.73A.71.71,0,0,0,17.49,0a14.84,14.84,0,0,0-4.68,1.68.71.71,0,0,0,.75,1.21,12.1,12.1,0,0,1,2.88-1.17c-2.61,6.9-.91,10,.4,11.19a4.86,4.86,0,0,0,5.48.76,3.87,3.87,0,0,0,2-2.12,8.57,8.57,0,0,1,1.14,1.86c1.14,2.57,1,5.54-.55,8.84a.71.71,0,0,0,.05.68.7.7,0,0,0,.6.33,14.81,14.81,0,0,0,2.37-.2A8,8,0,0,0,30,22.45a12.77,12.77,0,0,1-6.87,10.72,16.18,16.18,0,0,1-3.28,1.35c.25-.2.5-.4.73-.61a9.47,9.47,0,0,0,2.52-3.71.72.72,0,0,0-1.34-.5,6.92,6.92,0,0,1-.39.88,5.13,5.13,0,0,0-1.46-4.89.7.7,0,0,0-.53-.21.74.74,0,0,0-.52.25,2.6,2.6,0,0,1-3.4.84c-1-.62-1.8-2.22-.75-4.73a.71.71,0,0,0-.18-.81.73.73,0,0,0-.83-.09A9.78,9.78,0,0,0,9.33,25.5,7.78,7.78,0,0,0,9,30.59a9.09,9.09,0,0,0,1.12,2.53,8.42,8.42,0,0,1-1.65-2,7.85,7.85,0,0,1-.11-7.91c.3-.58.68-1.22,1.09-1.9,1.37-2.32,2.9-4.89,3-7.14a11.87,11.87,0,0,1,2.19,1.57,6.39,6.39,0,0,1,2.15,6.38.71.71,0,0,0,.91.83,7.53,7.53,0,0,0,3.2-2.16,12.83,12.83,0,0,1,1.31,4.08.72.72,0,1,0,1.42-.2,14,14,0,0,0-2.08-5.58.69.69,0,0,0-.62-.32.7.7,0,0,0-.59.36,5.62,5.62,0,0,1-2,1.93,7.89,7.89,0,0,0-2.8-6.4,12.65,12.65,0,0,0-3.69-2.35.72.72,0,0,0-.95.85c.52,1.94-1.28,5-2.72,7.42-.41.69-.8,1.35-1.13,2a9.27,9.27,0,0,0,.15,9.31A9.08,9.08,0,0,0,8.73,33.8a12.7,12.7,0,0,1-1.87-1.06C2.92,30,1.05,25.39,1.5,19.57c1.12,1.07,2.81,2.51,4,2.71a.71.71,0,0,0,.61-.18.7.7,0,0,0,.22-.61c0-.09-1-9.44,3.56-15.42a.71.71,0,0,0-.12-1,.73.73,0,0,0-1,.13C6.16,8.57,5.26,12.87,5,15.89a31.32,31.32,0,0,0-.12,4.56,20.48,20.48,0,0,1-3.36-2.93.71.71,0,0,0-.74-.19.72.72,0,0,0-.49.58c-1,7.07,1.08,12.75,5.81,16a16,16,0,0,0,8.76,2.69h1.06a18.14,18.14,0,0,0,8-2.18,14.87,14.87,0,0,0,5.6-5.29A14.55,14.55,0,0,0,31.45,20.91ZM12.86,23.24a5.49,5.49,0,0,0,.07,2,4,4,0,0,0,1.79,2.55,3.67,3.67,0,0,0,2.65.48,4.31,4.31,0,0,0,2-1A3.65,3.65,0,0,1,20,30.3a7.55,7.55,0,0,1-3.84,4.63l-.65.24h-.05c-2.19-.18-4.38-2.28-5.08-5A6.56,6.56,0,0,1,12.86,23.24Z"/><path class="cls-1" d="M22.31,26.85h0a.72.72,0,0,0,.69.74h0a.71.71,0,0,0,.71-.69v0a.72.72,0,0,0-1.43,0Z"/><path class="cls-1" d="M11.51,4.08a.72.72,0,1,1-.72-.72A.71.71,0,0,1,11.51,4.08Z"/></g></g></svg>