<svg xmlns="http://www.w3.org/2000/svg" viewBox="0 0 36.47 31.74"><defs><style>.cls-1{fill:#e5e009;}</style></defs><g id="Слой_2" data-name="Слой 2"><g id="Слой_17" data-name="Слой 17"><path class="cls-1" d="M7.15,2.71a.7.7,0,0,1-.5-.21L5.34,1.2a.69.69,0,0,1,0-1,.71.71,0,0,1,1,0l1.31,1.3a.69.69,0,0,1,0,1A.71.71,0,0,1,7.15,2.71Z"/><path class="cls-1" d="M30.62,26a.7.7,0,0,1-.5-.21l-1.31-1.3a.69.69,0,0,1,0-1,.71.71,0,0,1,1,0l1.31,1.3a.69.69,0,0,1,0,1A.71.71,0,0,1,30.62,26Z"/><path class="cls-1" d="M29.31,2.71a.7.7,0,0,1-.5-.21.69.69,0,0,1,0-1L30.12.21a.71.71,0,0,1,1,0,.69.69,0,0,1,0,1L29.82,2.5A.71.71,0,0,1,29.31,2.71Z"/><path class="cls-1" d="M5.84,26a.7.7,0,0,1-.5-.21.69.69,0,0,1,0-1l1.31-1.3a.71.71,0,0,1,1,0,.69.69,0,0,1,0,1l-1.31,1.3A.71.71,0,0,1,5.84,26Z"/><path class="cls-1" d="M35.76,13.7H33.9a.71.71,0,1,1,0-1.41h1.86a.71.71,0,1,1,0,1.41Z"/><path class="cls-1" d="M2.56,13.7H.71a.71.71,0,1,1,0-1.41H2.56a.71.71,0,1,1,0,1.41Z"/><path class="cls-1" d="M21.39,13.76a4.89,4.89,0,1,0-6.31,0,4.54,4.54,0,0,0-3,4.26v2a.71.71,0,0,0,.72.71H23.7a.71.71,0,0,0,.72-.71V18A4.54,4.54,0,0,0,21.39,13.76Zm-6.61-3.69a3.46,3.46,0,1,1,3.45,3.43A3.44,3.44,0,0,1,14.78,10.07ZM23,19.34H13.48V18a3.13,3.13,0,0,1,3.14-3.11h3.23A3.13,3.13,0,0,1,23,18v1.32Z"/><path class="cls-1" d="M31,13.7a.71.71,0,0,1-.67-.47.71.71,0,0,1,.21-.77.72.72,0,0,1,.84-.06.69.69,0,0,1,.32.73A.72.72,0,0,1,31,13.7Z"/><path class="cls-1" d="M30.82,15.47A.72.72,0,0,0,30,16c-.95,4.17-4.3,7.32-9.18,8.64a.71.71,0,0,0-.53.68v1.8H16.2v-1.8a.7.7,0,0,0-.52-.68c-5.92-1.6-9.46-5.78-9.46-11.17A12,12,0,0,1,29.72,10a.73.73,0,0,0,.89.47.71.71,0,0,0,.48-.88A13.46,13.46,0,0,0,4.8,13.48a12.11,12.11,0,0,0,2.72,7.76,14.66,14.66,0,0,0,7.26,4.62v1.27h0a.7.7,0,0,0-.71.7.71.71,0,0,0,.71.71h0V31a.7.7,0,0,0,.71.7H21a.7.7,0,0,0,.71-.7v-2.5h0a.71.71,0,0,0,.71-.71.7.7,0,0,0-.71-.7h0V25.86c5.12-1.54,8.63-5,9.67-9.54a.72.72,0,0,0-.54-.85ZM20.26,30.33H16.2V28.54h4.06Z"/></g></g></svg>