<svg xmlns="http://www.w3.org/2000/svg" xmlns:xlink="http://www.w3.org/1999/xlink" viewBox="0 0 36.47 32.57"><defs><style>.cls-1{fill:none;}.cls-2{clip-path:url(#clip-path);}.cls-3{fill:#e5e009;}.cls-4{fill:#27348b;}</style><clipPath id="clip-path" transform="translate(0 -0.05)"><rect class="cls-1" width="36.47" height="32.67"/></clipPath></defs><g id="Слой_2" data-name="Слой 2"><g id="Слой_8" data-name="Слой 8"><g class="cls-2"><path class="cls-3" d="M29.14,6.81a.7.7,0,0,0,.5-.21.71.71,0,0,0,0-1h0a.71.71,0,0,0-1,0,.72.72,0,0,0,.51,1.22Z" transform="translate(0 -0.05)"/><path class="cls-4" d="M36.22,26a2.33,2.33,0,0,0-3.12-1c-.63.31-1.29.6-2,.87l-2.75-5.48,2.84-9.72,2.37.26a2.42,2.42,0,0,0,2.7-1.37,3,3,0,0,0-1-3.33h0L27.8.5A1.5,1.5,0,0,0,25.87.32L25.6.55c-1.73.11-3.15,1.14-4.31,3.15a31.63,31.63,0,0,0-2.4,6.2c-.21.68-.41,1.33-.62,2a17.2,17.2,0,0,1-3.57-.32,19,19,0,0,0-3.1-.32A6,6,0,0,0,7.34,8.74a4.86,4.86,0,0,0-3.77,1.89C2,12.39,1.71,14.85,1.25,18.24c-.11.82-.22,1.66-.36,2.58a.7.7,0,0,0,.29.68.73.73,0,0,0,.42.14.68.68,0,0,0,.33-.09A14.64,14.64,0,0,1,3.3,21a5.31,5.31,0,0,0,2.48-1.54,6.7,6.7,0,0,0,2,2.44l-2,4.08a23.32,23.32,0,0,1-2.33-1A2.33,2.33,0,0,0,.25,26a2.27,2.27,0,0,0-.13,1.77,2.33,2.33,0,0,0,1.17,1.35A36.73,36.73,0,0,0,15,32.51h0a.71.71,0,0,0,.05-1.42A35.4,35.4,0,0,1,1.92,27.81a.89.89,0,0,1-.4-1.2.9.9,0,0,1,1.21-.41c8.55,4.27,22.46,4.27,31,0a.91.91,0,0,1,1.22.41.89.89,0,0,1,0,.68.88.88,0,0,1-.46.52,35.11,35.11,0,0,1-13.16,3.28.71.71,0,1,0,.1,1.42,36.78,36.78,0,0,0,13.7-3.42,2.31,2.31,0,0,0,1.17-1.34A2.34,2.34,0,0,0,36.22,26ZM34.42,7.28A1.57,1.57,0,0,1,35,9c-.2.5-.78.55-1.22.5l-3-.33a.71.71,0,0,0-.76.51L26.93,20.19a.72.72,0,0,0,.05.52l2.79,5.57A28.35,28.35,0,0,1,27,27L24.69,22.7a3,3,0,0,0-3-1.8H19.39V17.77A3.33,3.33,0,0,0,22,14.54V12.71c1.59-.69,2-2,2.36-3.34a13,13,0,0,1,1.13-2.88c.23-.35.31-.49.36-.58a3,3,0,0,1,.27-.38.71.71,0,0,0,0-.8,2.72,2.72,0,0,1,.56-3.26ZM15.89,17.85H18v3H15.89Zm4.36-7.52c1.08-3.46,2.19-7,4.33-8.06A4.28,4.28,0,0,0,24.71,5l-.1.17c0,.08-.11.19-.32.52l0,0A14,14,0,0,0,23,9c-.42,1.44-.64,2.16-1.91,2.56a9.26,9.26,0,0,1-1.29.24l.45-1.44Zm.32,2.77v1.44a1.89,1.89,0,0,1-1.89,1.89h-3.5a1.89,1.89,0,0,1-1.89-1.89V12.76c.41.05.8.1,1.11.17a18.48,18.48,0,0,0,6.17.17ZM2.78,19.63l-.29.11c.06-.45.12-.88.17-1.31.44-3.26.73-5.42,2-6.86a3.39,3.39,0,0,1,2.65-1.4,3.9,3.9,0,0,1,2.46,1.17,5.32,5.32,0,0,0-4.35,3.79,5.72,5.72,0,0,0-.22,2c-.22,1.68-1.05,2-2.41,2.54Zm6.52,2.3a.71.71,0,0,0,0-.69A.78.78,0,0,0,9,21a4.93,4.93,0,0,1-2.25-5.47c.53-1.84,2.14-2.9,4.42-2.9h0l.62,0v1.89a3.31,3.31,0,0,0,2.61,3.23V21A3,3,0,0,0,12.2,22.7L9.83,27.13c-.95-.21-1.88-.45-2.77-.73Zm2,5.48,2.17-4a1.66,1.66,0,0,1,1.72-1.05h6.53a1.65,1.65,0,0,1,1.72,1.05l2.13,4a41.45,41.45,0,0,1-14.27.07Z" transform="translate(0 -0.05)"/></g><path class="cls-3" d="M18.23,31.2a.71.71,0,1,0,0,1.42h0a.71.71,0,0,0,0-1.42Z" transform="translate(0 -0.05)"/></g></g></svg>