<svg xmlns="http://www.w3.org/2000/svg" viewBox="0 0 36.31 34.8"><defs><style>.cls-1{fill:none;stroke:#fff;stroke-linecap:round;stroke-miterlimit:10;stroke-width:1.5px;}</style></defs><g id="Слой_2" data-name="Слой 2"><g id="Слой_13" data-name="Слой 13"><line class="cls-1" x1="24.3" y1="10.49" x2="24.3" y2="10.49"/><path class="cls-1" d="M27.47,11.05l6.4.93A2,2,0,0,1,35,15.35L28.34,21.8a.94.94,0,0,0-.27.83l1.56,9.11a2,2,0,0,1-2.86,2.08l-8.18-4.3a.9.9,0,0,0-.87,0l-8.18,4.3a2,2,0,0,1-2.87-2.08l1.57-9.11A.94.94,0,0,0,8,21.8L1.35,15.35A2,2,0,0,1,2.44,12l9.15-1.33a.93.93,0,0,0,.7-.51l4.09-8.29a2,2,0,0,1,3.54,0L22.3,6.66"/></g></g></svg>