<svg xmlns="http://www.w3.org/2000/svg" xmlns:xlink="http://www.w3.org/1999/xlink" viewBox="0 0 35 31.8"><defs><style>.cls-1,.cls-3,.cls-4{fill:none;}.cls-2{fill:#fff;}.cls-3{stroke:#fff;stroke-linecap:round;}.cls-3,.cls-4{stroke-miterlimit:10;}.cls-4{stroke:#ed7446;}.cls-5{clip-path:url(#clip-path);}</style><clipPath id="clip-path" transform="translate(-1.76 -3.96)"><rect class="cls-1" x="5.18" y="6.03" width="29.52" height="27.28" transform="translate(-7.72 15.24) rotate(-35.51)"/></clipPath></defs><g id="Слой_2" data-name="Слой 2"><g id="Слой_12" data-name="Слой 12"><path class="cls-2" d="M2.81,19.1a.58.58,0,0,1-.14.8A.57.57,0,1,1,2,19a.58.58,0,0,1,.8.14Z" transform="translate(-1.76 -3.96)"/><path class="cls-3" d="M20,35.25H2.31" transform="translate(-1.76 -3.96)"/><line class="cls-4" x1="4.47" y1="27.33" x2="4.47" y2="27.33"/><path class="cls-3" d="M18.71,31.29h-10" transform="translate(-1.76 -3.96)"/><path class="cls-3" d="M17.93,27.4H10.08" transform="translate(-1.76 -3.96)"/><g class="cls-5"><path class="cls-2" d="M27.64,5.3a.57.57,0,0,0-.49.08L26,6.19a4.19,4.19,0,0,0-.61-.84A4.28,4.28,0,0,0,22.36,4a4.34,4.34,0,0,0-2.9,1L19,4.34a.58.58,0,0,0-.81-.13L11.8,8.8a.58.58,0,0,0-.14.81l.83,1.16-5,3.55a.58.58,0,0,0-.14.82L9.44,18l-.85.61L6.16,16.52a.59.59,0,0,0-.72,0l-1.31.94a.57.57,0,0,0-.14.81.59.59,0,0,0,.81.14l.94-.67L17.42,27.87l.91,3.63a2.45,2.45,0,1,0,3.66.38,2.42,2.42,0,0,0-1-.83l10.92-7.79a2.37,2.37,0,0,0,.44,1.26,2.46,2.46,0,1,0,.58-3.42L19.35,30.75l-.74-2.95L32,18.26a2.11,2.11,0,0,0,.54-2.65L28,5.62a.56.56,0,0,0-.38-.32ZM20.73,34.36a1.29,1.29,0,1,1,.31-1.8,1.28,1.28,0,0,1-.31,1.8Zm14.63-12a1.29,1.29,0,0,1-2.1,1.5,1.27,1.27,0,0,1,.3-1.79,1.29,1.29,0,0,1,1.8.29Zm-7-13.14-4.41,3.15-2.07-1.77,5.38-3.83ZM30,12.74l-3,2.16-2.07-1.77,4-2.84Zm-3.64,8.14-2.62-2.25,3.16-2.25,2.62,2.24Zm-4.14,2.95-2.62-2.24,3.16-2.26,2.62,2.25Zm-4.18,3-2.6-2.26,3.18-2.26,2.62,2.24Zm2.9-15.53L23,13.05,19.8,15.31l-2.07-1.77Zm-4.14,3L18.82,16l-3.16,2.25-2.07-1.77Zm3,2.55,2.07,1.76-3.16,2.26L16.57,19Zm-2.07,4.72-3.17,2.26L12.44,22l3.15-2.25Zm5.12-3.66-2.07-1.76,3.16-2.26,2.07,1.77Zm1.77-11.7a2.77,2.77,0,0,1,.51.72l-2.79,2-2.13-3a3.22,3.22,0,0,1,4.41.27ZM13,9.41,18.43,5.5l2.89,4.05-4.5,3.21L14.76,9.87a.59.59,0,0,0-.82-.13l-.5.35ZM8.67,14.93,14.15,11l1.72,2.41-5.48,3.9Zm3.94,2.26L14.67,19,11.54,21.2l-2-1.78Zm18.7.12-.85.61-2.63-2.24,2.6-1.86,1,2.27a1,1,0,0,1-.15,1.22Z" transform="translate(-1.76 -3.96)"/></g></g></g></svg>