<svg xmlns="http://www.w3.org/2000/svg" xmlns:xlink="http://www.w3.org/1999/xlink" viewBox="0 0 28.89 36.61"><defs><style>.cls-1{fill:none;}.cls-2{fill:#27348b;}.cls-3{clip-path:url(#clip-path);}.cls-4{fill:#e5e009;}</style><clipPath id="clip-path" transform="translate(-0.05 0)"><rect class="cls-1" width="28.98" height="36.61"/></clipPath></defs><g id="Слой_2" data-name="Слой 2"><g id="Слой_11" data-name="Слой 11"><path class="cls-2" d="M26.52,21.94V19.17a.72.72,0,0,0-.72-.72h-.54a4.41,4.41,0,0,0-4.33-3.67A3.39,3.39,0,0,1,18,13a.69.69,0,0,0-.57-.36.68.68,0,0,0-.62.28l-.39.51a3.41,3.41,0,0,1-2.69,1.32H8.05a4.4,4.4,0,0,0-4.32,3.67H3.18a.71.71,0,0,0-.71.72v2.77A2.63,2.63,0,0,0,.19,24.55v7.18a4.89,4.89,0,0,0,4.88,4.88H23.92a4.88,4.88,0,0,0,4.87-4.88V24.55a2.63,2.63,0,0,0-2.27-2.61ZM8.05,16.21H13.7a4.85,4.85,0,0,0,3.62-1.63,4.78,4.78,0,0,0,3.61,1.63,3,3,0,0,1,2.87,2.24H5.18a3,3,0,0,1,2.87-2.24ZM27.36,31.73a3.45,3.45,0,0,1-3.44,3.45H5.07a3.46,3.46,0,0,1-3.45-3.45V24.55a1.21,1.21,0,0,1,1.21-1.21h8.44a.72.72,0,1,0,0-1.43H3.9v-2H25.09v2H17.71a.72.72,0,1,0,0,1.43h8.45a1.21,1.21,0,0,1,1.2,1.21Z" transform="translate(-0.05 0)"/><g class="cls-3"><path class="cls-4" d="M8.5,8.54a6.47,6.47,0,0,0,4.57,1.9,5.74,5.74,0,0,0,.71,0v1.21a.72.72,0,0,0,1.43,0v-3c.23,0,.47,0,.7,0a6.45,6.45,0,0,0,4.57-1.9,6.49,6.49,0,0,0,1.88-4.2A2.38,2.38,0,0,0,21.68.69,2.4,2.4,0,0,0,19.87,0a6.48,6.48,0,0,0-4.2,1.89A6.6,6.6,0,0,0,14,4.6a6.6,6.6,0,0,0-.73-.87,6.45,6.45,0,0,0-4.2-1.88A2.35,2.35,0,0,0,6.62,4.34,6.47,6.47,0,0,0,8.5,8.54ZM16.68,2.9A5,5,0,0,1,20,1.43a1,1,0,0,1,.72.27.93.93,0,0,1,.27.71,5.12,5.12,0,0,1-1.47,3.28,5,5,0,0,1-3.25,1.46l1.51-1.5a.71.71,0,1,0-1-1l-1.51,1.5A5,5,0,0,1,16.68,2.9Zm-8.36.65A.88.88,0,0,1,9,3.27H9A5,5,0,0,1,13.77,8L12.56,6.77a.72.72,0,1,0-1,1L12.76,9A5.05,5.05,0,0,1,8.05,4.26a.89.89,0,0,1,.27-.71Z" transform="translate(-0.05 0)"/></g><path class="cls-2" d="M24.87,12.11h1v1a.72.72,0,1,0,1.43,0v-1h1a.72.72,0,1,0,0-1.43h-1v-1a.72.72,0,0,0-1.43,0v1h-1a.72.72,0,1,0,0,1.43Z" transform="translate(-0.05 0)"/><path class="cls-2" d="M.76,8.61h1v1a.72.72,0,0,0,1.43,0v-1h1a.72.72,0,1,0,0-1.43h-1v-1a.72.72,0,0,0-1.43,0v1h-1a.72.72,0,0,0,0,1.43Z" transform="translate(-0.05 0)"/><path class="cls-2" d="M6.51,12.15a.72.72,0,1,1-.71-.71.71.71,0,0,1,.71.71Z" transform="translate(-0.05 0)"/><path class="cls-4" d="M15.21,22.63a.72.72,0,1,1-.72-.72.71.71,0,0,1,.72.72Z" transform="translate(-0.05 0)"/><path class="cls-2" d="M25.62,6.28a.72.72,0,1,1-.72-.72.71.71,0,0,1,.72.72Z" transform="translate(-0.05 0)"/></g></g></svg>