<svg xmlns="http://www.w3.org/2000/svg" viewBox="0 0 36.53 30.89"><defs><style>.cls-1{fill:#e5e009;}.cls-2{fill:#27348b;}</style></defs><g id="Слой_2" data-name="Слой 2"><g id="Слой_6" data-name="Слой 6"><path class="cls-1" d="M14.23,16.34h8.06a.72.72,0,0,0,.72-.72V12.77a.71.71,0,0,0-.72-.71H14.23a.71.71,0,0,0-.71.71v2.85a.71.71,0,0,0,.71.72ZM15,13.48h6.63v1.43H15Z"/><path class="cls-2" d="M34.39,6.06H31a3.56,3.56,0,0,0-3.54-3.21h-4V2.14A2.14,2.14,0,0,0,21.35,0H15.18A2.14,2.14,0,0,0,13,2.14v.71h-4A3.57,3.57,0,0,0,5.51,6.06H2.14A2.14,2.14,0,0,0,0,8.2v.63a2.13,2.13,0,0,0,1,1.8l4.5,2.89v13.8a3.57,3.57,0,0,0,3.57,3.57H27.47A3.57,3.57,0,0,0,31,27.32v-6a.71.71,0,1,0-1.42,0v5.28H6.92v-16h3.75V22.76a2.14,2.14,0,0,0,2.14,2.14H23.72a2.14,2.14,0,0,0,2.14-2.14V10.63h3.75v5a.71.71,0,1,0,1.42,0v-2.1l4.51-2.89a2.13,2.13,0,0,0,1-1.8V8.2a2.14,2.14,0,0,0-2.14-2.14ZM14.47,2.14a.71.71,0,0,1,.71-.71h6.17a.71.71,0,0,1,.71.71v.71H14.47ZM1.76,9.43a.7.7,0,0,1-.33-.6V8.2a.71.71,0,0,1,.71-.71H5.49v4.33Zm25.71,20H9.06A2.15,2.15,0,0,1,7,28H29.48a2.12,2.12,0,0,1-2,1.42Zm-3-6.7a.71.71,0,0,1-.71.71H12.81a.71.71,0,0,1-.72-.71V10.63H24.43ZM6.92,9.2V6.42A2.14,2.14,0,0,1,9.06,4.28H27.47a2.14,2.14,0,0,1,2.14,2.14V9.2ZM35.1,8.83a.7.7,0,0,1-.33.6L31,11.82V7.49h3.36a.71.71,0,0,1,.71.71Z"/><path class="cls-1" d="M22.29,17.76H20.36a.72.72,0,0,0,0,1.43h1.93a.72.72,0,1,0,0-1.43Z"/><path class="cls-1" d="M22.29,20.62H20.36a.71.71,0,1,0,0,1.42h1.93a.71.71,0,1,0,0-1.42Z"/><path class="cls-1" d="M14.23,19.19h1.93a.72.72,0,1,0,0-1.43H14.23a.72.72,0,0,0,0,1.43Z"/><path class="cls-1" d="M14.23,22h1.93a.71.71,0,1,0,0-1.42H14.23a.71.71,0,1,0,0,1.42Z"/><path class="cls-1" d="M31,18.48a.71.71,0,1,1-.71-.72.71.71,0,0,1,.71.72Z"/></g></g></svg>