<svg xmlns="http://www.w3.org/2000/svg" viewBox="0 0 36.47 21.07"><defs><style>.cls-1{fill:#27348b;}.cls-2{fill:#e5e009;}</style></defs><g id="Слой_2" data-name="Слой 2"><g id="Слой_2-2" data-name="Слой 2"><path class="cls-1" d="M36.26,17a.72.72,0,0,0-.5-.2H33.65V15.6a.71.71,0,0,0-1.42,0v1.2H30.8V3.56a.71.71,0,0,0-.71-.71H6.38a.71.71,0,0,0-.71.71V16.8H4.24V2.14A.71.71,0,0,1,5,1.42H31.51a.72.72,0,0,1,.72.72v7a.71.71,0,1,0,1.42,0v-7A2.14,2.14,0,0,0,31.51,0H5A2.14,2.14,0,0,0,2.82,2.14V16.8H.71a.71.71,0,0,0-.71.71,3.57,3.57,0,0,0,3.56,3.56H32.91a3.57,3.57,0,0,0,3.56-3.56.75.75,0,0,0-.21-.51ZM7.09,4.27H29.38V16.8H7.09ZM32.91,19.65H3.56a2.13,2.13,0,0,1-2-1.43H34.92a2.13,2.13,0,0,1-2,1.43Z"/><path class="cls-2" d="M33.65,12.4a.71.71,0,1,1-.71-.71.71.71,0,0,1,.71.71Z"/></g></g></svg>