<svg xmlns="http://www.w3.org/2000/svg" viewBox="0 0 36.47 34.19"><defs><style>.cls-1{fill:#27348b;}.cls-2{fill:#e5e009;}</style></defs><g id="Слой_2" data-name="Слой 2"><g id="Слой_15" data-name="Слой 15"><path class="cls-1" d="M34.33,10a2.14,2.14,0,0,0,2.14-2.14V2.14A2.14,2.14,0,0,0,34.33,0H30.65a.71.71,0,0,0,0,1.42h3.68a.71.71,0,0,1,.71.72V7.83a.71.71,0,0,1-.71.72H2.14a.72.72,0,0,1-.72-.72V2.14a.72.72,0,0,1,.72-.72H25A.71.71,0,1,0,25,0H2.14A2.14,2.14,0,0,0,0,2.14V7.83A2.14,2.14,0,0,0,2.14,10h.71v2.14H2.14A2.14,2.14,0,0,0,0,14.25v5.69a2.14,2.14,0,0,0,2.14,2.14h.71v2.14H2.14A2.14,2.14,0,0,0,0,26.35v5.7a2.14,2.14,0,0,0,2.14,2.14H34.33a2.14,2.14,0,0,0,2.14-2.14v-5.7a2.14,2.14,0,0,0-2.14-2.13h-.71V22.08h.71a2.14,2.14,0,0,0,2.14-2.14V14.25a2.14,2.14,0,0,0-2.14-2.14h-.71V10ZM35,26.35v5.7a.71.71,0,0,1-.71.71H2.14a.71.71,0,0,1-.72-.71v-5.7a.71.71,0,0,1,.72-.71H34.33a.71.71,0,0,1,.71.71Zm-2.85-2.13H4.27V22.08H32.19Zm2.85-10v5.69a.71.71,0,0,1-.71.72H2.14a.72.72,0,0,1-.72-.72V14.25a.72.72,0,0,1,.72-.72H34.33a.71.71,0,0,1,.71.72Zm-2.85-2.14H4.27V10H32.19Z"/><path class="cls-2" d="M30.77,15a2.14,2.14,0,1,0,2.14,2.13A2.14,2.14,0,0,0,30.77,15Zm0,2.85a.72.72,0,1,1,.71-.72.71.71,0,0,1-.71.72Z"/><path class="cls-2" d="M8.55,15H5.7a2.14,2.14,0,1,0,0,4.27H8.55a2.14,2.14,0,0,0,0-4.27Zm0,2.85H5.7a.72.72,0,0,1,0-1.43H8.55a.72.72,0,0,1,0,1.43Z"/><path class="cls-2" d="M17.09,15H14.25a2.14,2.14,0,1,0,0,4.27h2.84a2.14,2.14,0,1,0,0-4.27Zm0,2.85H14.25a.72.72,0,1,1,0-1.43h2.84a.72.72,0,1,1,0,1.43Z"/><path class="cls-2" d="M30.77,7.12A2.14,2.14,0,1,0,28.63,5a2.14,2.14,0,0,0,2.14,2.13Zm0-2.85a.72.72,0,1,1-.71.72.71.71,0,0,1,.71-.72Z"/><path class="cls-2" d="M5.7,2.85a2.14,2.14,0,1,0,0,4.27H8.55a2.14,2.14,0,0,0,0-4.27ZM9.26,5a.71.71,0,0,1-.71.71H5.7a.72.72,0,0,1,0-1.43H8.55A.71.71,0,0,1,9.26,5Z"/><path class="cls-2" d="M14.25,2.85a2.14,2.14,0,1,0,0,4.27h2.84a2.14,2.14,0,1,0,0-4.27ZM17.81,5a.71.71,0,0,1-.72.71H14.25a.72.72,0,1,1,0-1.43h2.84a.72.72,0,0,1,.72.72Z"/><path class="cls-2" d="M30.77,27.07a2.14,2.14,0,1,0,2.14,2.13,2.13,2.13,0,0,0-2.14-2.13Zm0,2.85a.72.72,0,1,1,.71-.72.71.71,0,0,1-.71.72Z"/><path class="cls-2" d="M8.55,27.07H5.7a2.14,2.14,0,1,0,0,4.27H8.55a2.14,2.14,0,0,0,0-4.27Zm0,2.85H5.7a.72.72,0,0,1,0-1.43H8.55a.72.72,0,0,1,0,1.43Z"/><path class="cls-2" d="M17.09,27.07H14.25a2.14,2.14,0,1,0,0,4.27h2.84a2.14,2.14,0,1,0,0-4.27Zm0,2.85H14.25a.72.72,0,1,1,0-1.43h2.84a.72.72,0,1,1,0,1.43Z"/><path class="cls-2" d="M28.51.71a.71.71,0,0,1-1.42,0,.71.71,0,0,1,1.42,0Z"/></g></g></svg>