<svg xmlns="http://www.w3.org/2000/svg" viewBox="0 0 21.21 36.61"><defs><style>.cls-1{fill:#27348b;}.cls-2{fill:#e5e009;}</style></defs><g id="Слой_2" data-name="Слой 2"><g id="Слой_1-2" data-name="Слой 1"><path class="cls-1" d="M21.21,7.52V3.58A3.57,3.57,0,0,0,17.64,0H3.58A3.58,3.58,0,0,0,0,3.58V33a3.58,3.58,0,0,0,3.58,3.58H17.64A3.57,3.57,0,0,0,21.21,33V23.36a.72.72,0,1,0-1.43,0v6.1H1.43V7.15H19.78v9.77a.72.72,0,1,0,1.43,0V7.52ZM0,9v1.91m0,4.29v1.92M19.78,30.89V33a2.14,2.14,0,0,1-2.14,2.15H3.58A2.15,2.15,0,0,1,1.43,33V30.89ZM1.43,5.72V3.58A2.15,2.15,0,0,1,3.58,1.43H17.64a2.14,2.14,0,0,1,2.14,2.15V5.72Zm19.78,6.93V9"/><path class="cls-2" d="M12.39,2.86H8.82a.72.72,0,1,0,0,1.43h3.57a.72.72,0,1,0,0-1.43Z"/><path class="cls-2" d="M21.21,20.14a.72.72,0,1,1-.71-.72.71.71,0,0,1,.71.72Z"/></g></g></svg>