<svg xmlns="http://www.w3.org/2000/svg" viewBox="0 0 36.48 34.43"><defs><style>.cls-1{fill:#27348b;}.cls-2{fill:#e5e009;}</style></defs><g id="Слой_2" data-name="Слой 2"><g id="Слой_5" data-name="Слой 5"><path class="cls-1" d="M32.92,8.45H31.45a.72.72,0,0,0,0,1.43h1.47A2.14,2.14,0,0,1,35.05,12V30.86A2.14,2.14,0,0,1,32.92,33H3.56a2.14,2.14,0,0,1-2.14-2.14V12A2.14,2.14,0,0,1,3.56,9.88H25.75a.72.72,0,0,0,0-1.43h-4a3.48,3.48,0,0,0-.88-1.7l5.53-5.53a.71.71,0,0,0,0-1,.7.7,0,0,0-1,0l-5.7,5.7a3.5,3.5,0,0,0-2.88,0L13.13,2.23a.73.73,0,0,0-1,0,.71.71,0,0,0,0,1l3.51,3.51a3.48,3.48,0,0,0-.88,1.7H3.56A3.57,3.57,0,0,0,0,12V30.86a3.57,3.57,0,0,0,3.56,3.57H32.92a3.57,3.57,0,0,0,3.56-3.57V12a3.57,3.57,0,0,0-3.56-3.56ZM17,7.41l.09-.06a2.16,2.16,0,0,1,2.26,0l.09.06a2.16,2.16,0,0,1,.79,1h-4a2.18,2.18,0,0,1,.8-1Z"/><path class="cls-1" d="M26.42,28.56A1.43,1.43,0,0,0,27.85,30H32.2a1.43,1.43,0,0,0,1.43-1.43V27.14a1.43,1.43,0,0,0-1.43-1.43H27.85a1.43,1.43,0,0,0-1.43,1.43Zm1.43-1.42H32.2v1.42H27.85Z"/><path class="cls-2" d="M6.65,30h16a2.14,2.14,0,0,0,2.13-2.14V15.06a2.14,2.14,0,0,0-2.13-2.14h-16a2.14,2.14,0,0,0-2.14,2.14V27.82A2.14,2.14,0,0,0,6.65,30Zm16-1.43h-16a.7.7,0,0,1-.7-.6l4.57-4.57a.71.71,0,0,1,1,0l1.86,1.87-.66.66a.71.71,0,0,0,0,1,.71.71,0,0,0,1,0l5-5a.73.73,0,0,1,1,0l3.6,3.6v2.32a.71.71,0,0,1-.71.71Zm-16-14.18h16a.71.71,0,0,1,.71.71v8.43L20.75,20.9a2.14,2.14,0,0,0-3,0L14.4,24.22l-1.87-1.87a2.14,2.14,0,0,0-3,0L5.94,25.93V15.06a.71.71,0,0,1,.71-.71Z"/><path class="cls-1" d="M14.4,20a2.1,2.1,0,1,0-2.1-2.1A2.1,2.1,0,0,0,14.4,20Zm0-2.77a.68.68,0,1,1-.68.67.68.68,0,0,1,.68-.67Z"/><path class="cls-2" d="M28.63,8.46a.72.72,0,0,1,.68.74.71.71,0,0,1-1.42,0,.71.71,0,0,1,.74-.69Z"/></g></g></svg>