<svg xmlns="http://www.w3.org/2000/svg" viewBox="0 0 36.47 19.62"><defs><style>.cls-1{fill:#27348b;}.cls-2{fill:#e5e009;}.cls-3{fill:none;stroke:#e5e009;stroke-miterlimit:10;}</style></defs><g id="Слой_2" data-name="Слой 2"><g id="Слой_4" data-name="Слой 4"><path class="cls-1" d="M35.76,0h-8.9a.71.71,0,1,0,0,1.42h3.73V2.78h-.27A1.43,1.43,0,0,0,28.9,4.2V5.6H26.64a.71.71,0,0,0,0,1.42H28.9V9.87h-9a2.23,2.23,0,0,1,.1,1.42h8.9v2.14a.71.71,0,0,1-.71.71H8.28a.71.71,0,0,1-.71-.71V11.29h8.85a2.17,2.17,0,0,1,.1-1.42H7.57V7H20.94a.71.71,0,0,0,0-1.42H7.57V4.2A1.43,1.43,0,0,0,6.15,2.78H5.87V1.42H9.61a.7.7,0,0,0,.71-.71A.71.71,0,0,0,9.61,0H.71a.71.71,0,0,0,0,1.42H4.45V2.78H4.18A1.43,1.43,0,0,0,2.75,4.2V9.87a1.42,1.42,0,0,0,1.43,1.42h2v1a7.65,7.65,0,0,0-3.79,6.62.71.71,0,0,0,.71.71H5.92a.71.71,0,0,0,.72-.71,3.39,3.39,0,0,1,2.74-3.34H27.09a3.39,3.39,0,0,1,2.74,3.34.71.71,0,0,0,.71.71h2.85a.71.71,0,0,0,.72-.71,7.65,7.65,0,0,0-3.79-6.62v-1h2a1.42,1.42,0,0,0,1.42-1.42V4.2a1.43,1.43,0,0,0-1.42-1.42H32V1.42h3.74a.71.71,0,1,0,0-1.42ZM4.18,4.2h2V7h-2Zm0,5.67V8.45h2V9.87ZM5.26,18.2H3.83A6.23,6.23,0,0,1,6.21,14,2.19,2.19,0,0,0,7,15.15,4.8,4.8,0,0,0,5.26,18.2Zm27.38,0H31.2a4.79,4.79,0,0,0-1.74-3,2.19,2.19,0,0,0,.8-1.19A6.23,6.23,0,0,1,32.64,18.2Zm-.35-8.33h-2V8.45h2Zm0-5.67V7h-2V4.2Z"/><path class="cls-2" d="M24.49,6.21a.71.71,0,1,1-.82-.59.72.72,0,0,1,.82.59Z"/><circle class="cls-3" cx="18.24" cy="10.58" r="2.28"/></g></g></svg>