<svg xmlns="http://www.w3.org/2000/svg" viewBox="0 0 196.23 57.8"><defs><style>.cls-1{fill:#273585;}.cls-2{fill:#e5e009;}</style></defs><g id="Слой_2" data-name="Слой 2"><g id="Слой_1-2" data-name="Слой 1"><path class="cls-1" d="M41.93,12.29V32.37A16.37,16.37,0,0,1,25.56,48.74h0A16.37,16.37,0,0,1,9.18,32.37V12.29A4.53,4.53,0,0,0,4.65,7.76H4.53A4.53,4.53,0,0,0,0,12.29v20A25.49,25.49,0,0,0,25.5,57.8h0A25.49,25.49,0,0,0,51,32.31v-20a4.53,4.53,0,0,0-4.53-4.53h0A4.53,4.53,0,0,0,41.93,12.29Z"/><rect class="cls-2" x="20.96" width="9.06" height="18.65" rx="4.53"/><path class="cls-2" d="M104.32,10.07l4.06,13.37,4.1-13.83a2.13,2.13,0,0,1,2-1.53h0a2.13,2.13,0,0,1,2,2.75l-5.24,17.31a3,3,0,0,1-2.85,2.11h0a3,3,0,0,1-2.84-2.11l-4-13.16-4,13.16a3,3,0,0,1-2.84,2.11h0A3,3,0,0,1,92,28.14L86.73,10.83a2.13,2.13,0,0,1,2-2.75h0a2.13,2.13,0,0,1,2,1.53l4.11,13.83,4-13.37a2.81,2.81,0,0,1,2.68-2h0A2.79,2.79,0,0,1,104.32,10.07Z"/><path class="cls-2" d="M135.13,28.35h0a1.9,1.9,0,0,1-1.9,1.9H122.62A2.59,2.59,0,0,1,120,27.66v-17a2.59,2.59,0,0,1,2.59-2.59h10.46A1.9,1.9,0,0,1,135,10h0a1.9,1.9,0,0,1-1.9,1.9h-8.74v5.19h7.2a1.82,1.82,0,0,1,1.82,1.83h0a1.82,1.82,0,0,1-1.82,1.82h-7.2v5.73h8.89A1.9,1.9,0,0,1,135.13,28.35Z"/><path class="cls-2" d="M143.52,22.62v5.47a2.16,2.16,0,0,1-2.15,2.16h0a2.16,2.16,0,0,1-2.15-2.16V10.67a2.59,2.59,0,0,1,2.59-2.59h6.31a7.33,7.33,0,0,1,5.47,2.06,7.09,7.09,0,0,1,2,5.22,6.88,6.88,0,0,1-1.34,4.17,7,7,0,0,1-3.66,2.52l3.48,5.25a1.9,1.9,0,0,1-1.58,2.95h0a1.9,1.9,0,0,1-1.58-.85l-4.53-6.78ZM147.8,12h-4.28v6.74h4.28a3.64,3.64,0,0,0,2.66-.93,3.32,3.32,0,0,0,.95-2.46,3.27,3.27,0,0,0-.95-2.44A3.67,3.67,0,0,0,147.8,12Z"/><path class="cls-2" d="M175.19,10h0a2,2,0,0,1-1.95,2H168.6V28.09a2.16,2.16,0,0,1-2.15,2.16h0a2.16,2.16,0,0,1-2.15-2.16V12h-4.64a2,2,0,0,1-1.95-2h0a2,2,0,0,1,1.95-1.95h13.58A2,2,0,0,1,175.19,10Z"/><path class="cls-2" d="M179.74,8.08h0a2,2,0,0,1,1.77,1l5.33,9.24,5.33-9.24a2.07,2.07,0,0,1,1.78-1h0a2,2,0,0,1,1.75,3.09L189,22.43v5.66a2.16,2.16,0,0,1-2.16,2.16h0a2.16,2.16,0,0,1-2.15-2.16V22.46L178,11.17A2,2,0,0,1,179.74,8.08Z"/><path class="cls-2" d="M82.63,26.26a11.07,11.07,0,0,0,2.31-7.1A11.09,11.09,0,0,0,73.2,7.61,11.1,11.1,0,0,0,61.45,19.16a11.43,11.43,0,0,0,3.18,8.29,11.41,11.41,0,0,0,8.57,3.27,12.34,12.34,0,0,0,6.11-1.49L81.44,31a2.15,2.15,0,0,0,3-.27h0a2.14,2.14,0,0,0-.2-3Zm-9.45.5a7.59,7.59,0,1,1,7.59-7.6,7.43,7.43,0,0,1-.41,2.46,4.39,4.39,0,0,1-.75,1.57A7.58,7.58,0,0,1,73.18,26.76Z"/><path class="cls-1" d="M62.53,39.77v5.58q3.81-5.1,4.16-5.58h1.37v7.4H66.72V41.62l-4.14,5.55H61.21v-7.4Z"/><path class="cls-1" d="M75.61,44H71.45v3.22H70.13v-7.4h1.32v3h4.16v-3h1.33v7.4H75.61Z"/><path class="cls-1" d="M84.79,39.77V41H82.16v6.19H80.84V41H78.2V39.77Z"/><path class="cls-1" d="M92.72,43.26a3.18,3.18,0,0,1,0,.36H86.44a3,3,0,0,0,.8,1.89,2.59,2.59,0,0,0,2,.76A3.93,3.93,0,0,0,90.51,46a3.7,3.7,0,0,0,1.11-.61l.62.84a3.8,3.8,0,0,1-1.4.83,5.06,5.06,0,0,1-1.72.3,4.09,4.09,0,0,1-2.86-1.07,3.5,3.5,0,0,1-1.17-2.71,4,4,0,0,1,1.12-2.88,3.55,3.55,0,0,1,2.71-1.19,3.62,3.62,0,0,1,2.79,1.07A3.74,3.74,0,0,1,92.72,43.26Zm-1.31-.6a2.33,2.33,0,0,0-.79-1.42,2.5,2.5,0,0,0-1.7-.55,2.38,2.38,0,0,0-1.55.54,2.55,2.55,0,0,0-.89,1.43Z"/><path class="cls-1" d="M98.15,47.4a3.18,3.18,0,0,1-2.56-1.19v4H94.27V39.77h1.32v1a3.28,3.28,0,0,1,2.61-1.17,3.4,3.4,0,0,1,2.62,1.14,4.16,4.16,0,0,1,0,5.54A3.48,3.48,0,0,1,98.15,47.4Zm-.38-6.64a2.61,2.61,0,0,0-2.18,1.1V45.1a2.7,2.7,0,0,0,4.09.3,2.68,2.68,0,0,0,.78-1.93,2.71,2.71,0,0,0-2.69-2.71Z"/><path class="cls-1" d="M108.9,44h-4.16v3.22h-1.32v-7.4h1.32v3h4.16v-3h1.34v7.4H108.9Z"/><path class="cls-1" d="M119.42,43.26a3.18,3.18,0,0,1,0,.36h-6.25a3.07,3.07,0,0,0,.8,1.89,2.59,2.59,0,0,0,2,.76,3.88,3.88,0,0,0,1.27-.23,3.47,3.47,0,0,0,1.11-.61l.63.84a4,4,0,0,1-1.4.83,5.12,5.12,0,0,1-1.73.3A4.09,4.09,0,0,1,113,46.33a3.5,3.5,0,0,1-1.17-2.71,4,4,0,0,1,1.12-2.88,3.57,3.57,0,0,1,2.72-1.19,3.61,3.61,0,0,1,2.78,1.07A3.74,3.74,0,0,1,119.42,43.26Zm-1.3-.6a2.34,2.34,0,0,0-.8-1.42,2.49,2.49,0,0,0-1.69-.55,2.43,2.43,0,0,0-1.56.54,2.6,2.6,0,0,0-.89,1.43Z"/><path class="cls-1" d="M126.45,39.77V41h-2.63v6.19H122.5V41h-2.64V39.77Z"/><path class="cls-1" d="M131.28,43.46V42.23h4.14v1.23Z"/><path class="cls-1" d="M145.07,43.58l1.45-2.12,1.16-1.69h1.41v7.4h-1.32V41.65L147,42.73c-.26.39-.56.82-.89,1.29l-.75,1.1h-.59l-2.39-3.47v5.52h-1.32v-7.4h1.41Z"/><path class="cls-1" d="M153.11,47.4a2.75,2.75,0,0,1-1.83-.57,1.91,1.91,0,0,1-.67-1.54,2.13,2.13,0,0,1,.16-.86,2,2,0,0,1,.42-.63,2.09,2.09,0,0,1,.69-.43,6.24,6.24,0,0,1,.83-.28,6.35,6.35,0,0,1,1-.16l1.06-.07,1.11,0v-.6c0-1.07-.59-1.6-1.77-1.6a3.48,3.48,0,0,0-2.37.93l-.73-.81a5,5,0,0,1,4.75-1,1.93,1.93,0,0,1,.92.65,2.62,2.62,0,0,1,.42.81,2.91,2.91,0,0,1,.12.85v5.08h-1.34v-1.3A3.5,3.5,0,0,1,153.11,47.4Zm.33-1a2.94,2.94,0,0,0,2.44-1.58v-1.1a14.25,14.25,0,0,0-2.37.17,2.74,2.74,0,0,0-.59.16,1.64,1.64,0,0,0-.6.44,1,1,0,0,0-.3.74,1,1,0,0,0,.43.89A1.79,1.79,0,0,0,153.44,46.37Z"/><path class="cls-1" d="M164.59,39.77V41h-4.13v6.19h-1.32v-7.4Z"/><path class="cls-1" d="M167.44,47.4a2.75,2.75,0,0,1-1.83-.57,1.88,1.88,0,0,1-.68-1.54,2.13,2.13,0,0,1,.17-.86,1.86,1.86,0,0,1,.41-.63,2.09,2.09,0,0,1,.69-.43,6.77,6.77,0,0,1,.83-.28,6.5,6.5,0,0,1,1-.16l1.05-.07,1.12,0v-.6c0-1.07-.6-1.6-1.78-1.6a3.48,3.48,0,0,0-2.37.93l-.73-.81a5,5,0,0,1,4.75-1,2,2,0,0,1,.93.65,2.81,2.81,0,0,1,.41.81,2.91,2.91,0,0,1,.12.85v5.08h-1.33v-1.3A3.51,3.51,0,0,1,167.44,47.4Zm.32-1a3,3,0,0,0,2.45-1.58v-1.1a14.08,14.08,0,0,0-2.37.17,2.67,2.67,0,0,0-.6.16,1.83,1.83,0,0,0-.6.44,1,1,0,0,0-.3.74,1,1,0,0,0,.44.89A1.75,1.75,0,0,0,167.76,46.37Z"/><path class="cls-1" d="M174.93,42.89h1.16a1.34,1.34,0,0,0,.94-.35,1.07,1.07,0,0,0,.4-.83c0-.7-.48-1.05-1.45-1.05a2.8,2.8,0,0,0-2.13.87l-.31-.38q-.24-.28-.36-.45a3.74,3.74,0,0,1,2.89-1.15,3,3,0,0,1,2,.56,1.73,1.73,0,0,1,.66,1.38,1.79,1.79,0,0,1-.36,1.07,2.27,2.27,0,0,1-1,.76,2.19,2.19,0,0,1,1.09.74,1.8,1.8,0,0,1,.39,1.13,2,2,0,0,1-.73,1.56,3.39,3.39,0,0,1-2.28.65,4.14,4.14,0,0,1-3-1.14l.67-.82a3.33,3.33,0,0,0,2.26.89,1.94,1.94,0,0,0,1.27-.36,1.15,1.15,0,0,0,0-1.78,1.48,1.48,0,0,0-1-.35h-1.17Z"/><path class="cls-1" d="M181.82,39.77v5.58L186,39.77h1.36v7.4H186V41.62l-4.15,5.55H180.5v-7.4Z"/><path class="cls-1" d="M194.89,44h-4.16v3.22h-1.32v-7.4h1.32v3h4.16v-3h1.34v7.4h-1.34Z"/></g></g></svg>