<svg xmlns="http://www.w3.org/2000/svg" xmlns:xlink="http://www.w3.org/1999/xlink" viewBox="0 0 512 430.88"><defs><style>.cls-1{fill:url(#Безымянный_градиент_7);}.cls-2,.cls-4{fill:#e5e009;}.cls-2{opacity:0.11;isolation:isolate;}.cls-3{fill:#fff;}.cls-5{fill:#27348b;}</style><linearGradient id="Безымянный_градиент_7" x1="269.48" y1="2065.32" x2="225.48" y2="2451.32" gradientTransform="matrix(1, 0, 0, -1, 0, 2440.91)" gradientUnits="userSpaceOnUse"><stop offset="0" stop-color="#d2dbfc" stop-opacity="0"/><stop offset="1" stop-color="#e5e009"/></linearGradient></defs><g id="Слой_2" data-name="Слой 2"><g id="Capa_1" data-name="Capa 1"><path class="cls-1" d="M364.8,14.65c-69.1-27-164.8-16.8-217.7,31.5-37.3,34.1-8.4,43.8,17,106.2C182.6,197.45,0,191.25,0,272.85c0,94.3,132.3,76.4,181.3,87.2,75,16.5,140.5,78.2,220.7,70.1,69.8-7.1,96.4-61.9,106.1-124.6,18.1-117-26.3-245.1-143.3-290.9Z"/><path class="cls-2" d="M433.8,113.55V366a21,21,0,0,1-21,21H57.2a21,21,0,0,1-21-21V113.55a21,21,0,0,1,21-21H412.8A21,21,0,0,1,433.8,113.55Z"/><path class="cls-3" d="M454.8,92.55V345a21,21,0,0,1-21,21H78.2a21,21,0,0,1-21-21V92.55a21,21,0,0,1,21-21H433.8A21,21,0,0,1,454.8,92.55Z"/><path class="cls-4" d="M361,149.55v96.8a5,5,0,0,1-5,5H156a5,5,0,0,1-5-5v-96.8a5,5,0,0,1,5-5H356A5,5,0,0,1,361,149.55Z"/><path class="cls-3" d="M204.1,366a51.9,51.9,0,1,1,103.8,0Z"/><path class="cls-4" d="M454.8,92.55v33.2H57.2V92.55a21,21,0,0,1,21-21H433.8a21,21,0,0,1,21,21Z"/><circle class="cls-3" cx="91.8" cy="99.75" r="5.6"/><circle class="cls-3" cx="111.7" cy="99.75" r="5.6"/><circle class="cls-3" cx="131.7" cy="99.75" r="5.6"/><path class="cls-3" d="M282.6,270.75H256v-26.6a53.39,53.39,0,0,1,53.4-53.4,26.59,26.59,0,0,1,26.6,26.6,53.39,53.39,0,0,1-53.4,53.4Z"/><path class="cls-3" d="M280.5,170.45H256V146a49.12,49.12,0,0,1,49.1-49.1,24.54,24.54,0,0,1,24.5,24.5A49,49,0,0,1,280.5,170.45Z"/><path class="cls-3" d="M272.3,78.65H256V62.35a32.61,32.61,0,0,1,32.6-32.6,16.3,16.3,0,0,1,16.3,16.3A32.73,32.73,0,0,1,272.3,78.65Z"/><path class="cls-3" d="M229.4,270.75H256v-26.6a53.39,53.39,0,0,0-53.4-53.4,26.59,26.59,0,0,0-26.6,26.6,53.39,53.39,0,0,0,53.4,53.4Z"/><path class="cls-3" d="M231.5,170.45H256V146a49.12,49.12,0,0,0-49.1-49.1,24.54,24.54,0,0,0-24.5,24.5,49,49,0,0,0,49.1,49.1Z"/><path class="cls-3" d="M239.7,78.65H256V62.35a32.61,32.61,0,0,0-32.6-32.6,16.3,16.3,0,0,0-16.3,16.3A32.73,32.73,0,0,0,239.7,78.65Z"/><path class="cls-4" d="M355,272.45l24.5-25.9a5,5,0,0,1,7.3,0l24.5,25.9a5,5,0,0,1-3.6,8.4H395.6v38.3a5,5,0,0,1-5,5H375.9a5,5,0,0,1-5-5v-38.3H358.8a5,5,0,0,1-3.8-8.4Z"/><path class="cls-4" d="M100.8,272.45l24.5-25.9a5,5,0,0,1,7.3,0l24.4,25.9a5,5,0,0,1-3.6,8.4H141.3v38.3a5,5,0,0,1-5,5H121.6a5,5,0,0,1-5-5v-38.3H104.5A5,5,0,0,1,100.8,272.45Z"/><path class="cls-4" d="M25.5,196.75a14.3,14.3,0,0,1-10.3-4.3,14.6,14.6,0,1,1,20.6-20.7,14.76,14.76,0,0,1,0,20.7h0a14.54,14.54,0,0,1-10.3,4.3Zm0-19.2a4.55,4.55,0,1,0,3.2,1.3,4.22,4.22,0,0,0-3.2-1.3Z"/><path class="cls-4" d="M482.1,317.15a14.2,14.2,0,0,1-10.3-4.3,14.67,14.67,0,0,1,0-20.7,14.37,14.37,0,0,1,10.3-4.3,14.2,14.2,0,0,1,10.3,4.3,14.67,14.67,0,0,1,0,20.7h0a14.61,14.61,0,0,1-10.3,4.3Zm0-19.3a5.07,5.07,0,0,0-3.3,1.3,4.59,4.59,0,0,0,0,6.5,4.45,4.45,0,0,0,3.3,1.3,4.87,4.87,0,0,0,3.3-1.3h0a4.59,4.59,0,0,0,0-6.5A4.87,4.87,0,0,0,482.1,297.85Z"/><path class="cls-4" d="M194.6,394.05h-3.3v-3.3a5,5,0,0,0-10,0v3.3H178a5,5,0,1,0,0,10h3.3v3.3a5,5,0,0,0,10,0v-3.3h3.3a5,5,0,0,0,0-10Z"/><path class="cls-4" d="M238.3,405.35H235v-3.3a5,5,0,1,0-10,0v3.3h-3.3a5,5,0,1,0,0,10H225v3.3a5,5,0,0,0,10,0v-3.3h3.3a5,5,0,1,0,0-10Z"/><path class="cls-4" d="M122.7,36.45h-3.3v-3.3a5,5,0,0,0-10,0v3.3h-3.3a5,5,0,0,0,0,10h3.3v3.3a5,5,0,0,0,10,0v-3.3h3.3a5,5,0,0,0,0-10Z"/><path class="cls-5" d="M433.8,66.55H303.7a37.13,37.13,0,0,0,6.1-20.5,21.32,21.32,0,0,0-21.3-21.3,37.62,37.62,0,0,0-32.6,18.9,37.62,37.62,0,0,0-32.6-18.9A21.32,21.32,0,0,0,202,46.05a37.71,37.71,0,0,0,6.1,20.5H78.2a26.08,26.08,0,0,0-26,26v83.8a5,5,0,0,0,10,0v-45.6h116a54.32,54.32,0,0,0,53.3,44.7H251v36.1a58.42,58.42,0,0,0-48.4-25.7,31.67,31.67,0,0,0-31.6,31.6,58.47,58.47,0,0,0,58.4,58.4H251v33.5a57,57,0,0,0-51.7,51.7H78.2a16,16,0,0,1-16-16V204.55a5,5,0,0,0-10,0v140.5a26.08,26.08,0,0,0,26,26H433.8a26.08,26.08,0,0,0,26-26V92.55a26,26,0,0,0-26-26ZM288.6,34.75a11.35,11.35,0,0,1,11.3,11.3,27.66,27.66,0,0,1-27.6,27.6H261V62.35A27.66,27.66,0,0,1,288.6,34.75ZM261,146a44.17,44.17,0,0,1,44.1-44.1,19.53,19.53,0,0,1,19.5,19.5,44.17,44.17,0,0,1-44.1,44.1H261ZM223.4,34.75A27.66,27.66,0,0,1,251,62.35v11.3H239.7a27.66,27.66,0,0,1-27.6-27.6A11.42,11.42,0,0,1,223.4,34.75Zm-46.1,86H62.2V92.55a16,16,0,0,1,16-16H217.9a37.52,37.52,0,0,0,21.8,7H251v31a54,54,0,0,0-44.1-22.8,29.67,29.67,0,0,0-29.6,29Zm10,.5a19.53,19.53,0,0,1,19.5-19.5,44.17,44.17,0,0,1,44.1,44.1v19.6H231.4a44.19,44.19,0,0,1-44.1-44.2ZM261,244.15a48.44,48.44,0,0,1,48.4-48.4,21.64,21.64,0,0,1,21.6,21.6,48.44,48.44,0,0,1-48.4,48.4H261Zm-80-26.7a21.64,21.64,0,0,1,21.6-21.6,48.44,48.44,0,0,1,48.4,48.4v21.6H229.4A48.57,48.57,0,0,1,181,217.45Zm75,101.6A46.92,46.92,0,0,1,302.6,361H209.3a47.1,47.1,0,0,1,46.7-41.9ZM433.8,361H312.7a57,57,0,0,0-51.7-51.7v-33.5h21.6a58.47,58.47,0,0,0,58.4-58.4,31.67,31.67,0,0,0-31.6-31.6,58.42,58.42,0,0,0-48.4,25.7v-36h19.5a54.14,54.14,0,0,0,54.1-54.1,29.49,29.49,0,0,0-29.5-29.5,54,54,0,0,0-44.1,22.8v-31h11.3a37.29,37.29,0,0,0,21.8-7H433.8a16,16,0,0,1,16,16v28.2H357.2a5,5,0,0,0,0,10h92.6v214.2a16,16,0,0,1-16,15.9Z"/><path class="cls-5" d="M390.3,243.15a10.15,10.15,0,0,0-14.6,0l-24.5,25.9a10,10,0,0,0,7.3,16.8h7.1v33.3a10,10,0,0,0,10,10h14.7a10,10,0,0,0,10-10v-33.3h7.1a10.11,10.11,0,0,0,9.2-6,10,10,0,0,0-1.9-10.8Zm5.1,32.7a5,5,0,0,0-5,5v38.3H375.7v-38.3a5,5,0,0,0-5-5H358.6L383.1,250l24.5,25.9Z"/><path class="cls-5" d="M121.6,329.15h14.7a10,10,0,0,0,10-10v-33.3h7.1a10.11,10.11,0,0,0,9.2-6,10,10,0,0,0-1.9-10.8l-24.5-25.9a10,10,0,0,0-7.3-3.1,10.14,10.14,0,0,0-7.3,3.1l-24.5,25.9a10,10,0,0,0,7.3,16.8h7.1v33.3a10.18,10.18,0,0,0,10.1,10Zm-17.1-53.3L129,250l24.5,25.9H141.4a5,5,0,0,0-5,5v38.3H121.7v-38.3a5,5,0,0,0-5-5Z"/></g></g></svg>