<svg xmlns="http://www.w3.org/2000/svg" xmlns:xlink="http://www.w3.org/1999/xlink" viewBox="0 0 403 512.01"><defs><style>.cls-1{fill:url(#Безымянный_градиент_7);}.cls-2,.cls-4{fill:#e5e009;}.cls-2{opacity:0.11;isolation:isolate;}.cls-3{fill:#fff;}.cls-5{fill:#27348b;}</style><linearGradient id="Безымянный_градиент_7" x1="908.22" y1="-7540.51" x2="705.22" y2="-7457.51" gradientTransform="matrix(1, 0, 0, -1, -561.6, -7238.94)" gradientUnits="userSpaceOnUse"><stop offset="0" stop-color="#d2dbfc" stop-opacity="0"/><stop offset="1" stop-color="#e5e009"/></linearGradient></defs><g id="Слой_2" data-name="Слой 2"><g id="Capa_1" data-name="Capa 1"><path class="cls-1" d="M287.8.43C192,9.13,182.7,192.93,141.4,287c-20.5,46.7-68.8,94.8-60.3,149.8,9.6,62,72.9,80.1,121.7,74.1,120.7-14.7,172.9-141,180.8-260.8,4.9-73.8,20.3-260.2-95.8-249.7Z"/><path class="cls-2" d="M360,131.93H323v-12a10,10,0,0,0-10-10H301a10,10,0,0,0-10,10v12H245v-12a10,10,0,0,0-10-10H223a10,10,0,0,0-10,10v12H167v-12a10,10,0,0,0-10-10H145a10,10,0,0,0-10,10v12H89v-12a10,10,0,0,0-10-10H67a10,10,0,0,0-10,10v12H20a20.06,20.06,0,0,0-20,20v266a20.06,20.06,0,0,0,20,20H360a20.06,20.06,0,0,0,20-20V152A20.08,20.08,0,0,0,360,131.93Z"/><path class="cls-3" d="M378,419.93H38a20.06,20.06,0,0,1-20-20v-266a20.06,20.06,0,0,1,20-20H378a20.06,20.06,0,0,1,20,20v266A20,20,0,0,1,378,419.93Z"/><path class="cls-3" d="M336,361.93H82a5,5,0,0,1-5-5v-119a5,5,0,0,1,5-5H336a5,5,0,0,1,5,5v119A5,5,0,0,1,336,361.93Z"/><path class="cls-3" d="M398,178.93v-45a20.06,20.06,0,0,0-20-20H38a20.06,20.06,0,0,0-20,20v45Z"/><path class="cls-3" d="M97,142.93H85a10,10,0,0,1-10-10v-31a10,10,0,0,1,10-10H97a10,10,0,0,1,10,10v31A10,10,0,0,1,97,142.93Z"/><path class="cls-3" d="M175,142.93H163a10,10,0,0,1-10-10v-31a10,10,0,0,1,10-10h12a10,10,0,0,1,10,10v31A10,10,0,0,1,175,142.93Z"/><path class="cls-3" d="M252.9,142.93H241a10,10,0,0,1-10-10v-31a10,10,0,0,1,10-10h12a10,10,0,0,1,10,10v31A10,10,0,0,1,252.9,142.93Z"/><path class="cls-3" d="M331,142.93H319a10,10,0,0,1-10-10v-31a10,10,0,0,1,10-10h12a10,10,0,0,1,10,10v31A10,10,0,0,1,331,142.93Z"/><path class="cls-4" d="M91,255.93H63a10,10,0,0,1-10-10v-28a10,10,0,0,1,10-10H91a10,10,0,0,1,10,10v28A10,10,0,0,1,91,255.93Z"/><path class="cls-4" d="M157,255.93H129a10,10,0,0,1-10-10v-28a10,10,0,0,1,10-10h28a10,10,0,0,1,10,10v28A10,10,0,0,1,157,255.93Z"/><path class="cls-4" d="M222,255.93H194a10,10,0,0,1-10-10v-28a10,10,0,0,1,10-10h28a10,10,0,0,1,10,10v28A10,10,0,0,1,222,255.93Z"/><path class="cls-4" d="M287,255.93H259a10,10,0,0,1-10-10v-28a10,10,0,0,1,10-10h28a10,10,0,0,1,10,10v28A10,10,0,0,1,287,255.93Z"/><path class="cls-4" d="M353,255.93H325a10,10,0,0,1-10-10v-28a10,10,0,0,1,10-10h28a10,10,0,0,1,10,10v28A10,10,0,0,1,353,255.93Z"/><path class="cls-5" d="M91,260.93H63a15,15,0,0,1-15-15v-28a15,15,0,0,1,15-15H91a15,15,0,0,1,15,15v28A15,15,0,0,1,91,260.93Zm-28-48a5,5,0,0,0-5,5v28a5,5,0,0,0,5,5H91a5,5,0,0,0,5-5v-28a5,5,0,0,0-5-5Z"/><path class="cls-5" d="M157,260.93H129a15,15,0,0,1-15-15v-28a15,15,0,0,1,15-15h28a15,15,0,0,1,15,15v28A15,15,0,0,1,157,260.93Zm-28-48a5,5,0,0,0-5,5v28a5,5,0,0,0,5,5h28a5,5,0,0,0,5-5v-28a5,5,0,0,0-5-5Z"/><path class="cls-5" d="M222,260.93H194a15,15,0,0,1-15-15v-28a15,15,0,0,1,15-15h28a15,15,0,0,1,15,15v28A15,15,0,0,1,222,260.93Zm-28-48a5,5,0,0,0-5,5v28a5,5,0,0,0,5,5h28a5,5,0,0,0,5-5v-28a5,5,0,0,0-5-5Z"/><path class="cls-5" d="M287,260.93H259a15,15,0,0,1-15-15v-28a15,15,0,0,1,15-15h28a15,15,0,0,1,15,15v28A15,15,0,0,1,287,260.93Zm-28-48a5,5,0,0,0-5,5v28a5,5,0,0,0,5,5h28a5,5,0,0,0,5-5v-28a5,5,0,0,0-5-5Z"/><path class="cls-5" d="M353,260.93H325a15,15,0,0,1-15-15v-28a15,15,0,0,1,15-15h28a15,15,0,0,1,15,15v28A15,15,0,0,1,353,260.93Zm-28-48a5,5,0,0,0-5,5v28a5,5,0,0,0,5,5h28a5,5,0,0,0,5-5v-28a5,5,0,0,0-5-5Z"/><path class="cls-4" d="M91,320.93H63a10,10,0,0,1-10-10v-28a10,10,0,0,1,10-10H91a10,10,0,0,1,10,10v28A10,10,0,0,1,91,320.93Z"/><path class="cls-4" d="M157,320.93H129a10,10,0,0,1-10-10v-28a10,10,0,0,1,10-10h28a10,10,0,0,1,10,10v28A10,10,0,0,1,157,320.93Z"/><path class="cls-4" d="M222,320.93H194a10,10,0,0,1-10-10v-28a10,10,0,0,1,10-10h28a10,10,0,0,1,10,10v28A10,10,0,0,1,222,320.93Z"/><path class="cls-4" d="M287,320.93H259a10,10,0,0,1-10-10v-28a10,10,0,0,1,10-10h28a10,10,0,0,1,10,10v28A10,10,0,0,1,287,320.93Z"/><path class="cls-4" d="M353,320.93H325a10,10,0,0,1-10-10v-28a10,10,0,0,1,10-10h28a10,10,0,0,1,10,10v28A10,10,0,0,1,353,320.93Z"/><path class="cls-4" d="M91,385.93H63a10,10,0,0,1-10-10v-28a10,10,0,0,1,10-10H91a10,10,0,0,1,10,10v28A10,10,0,0,1,91,385.93Z"/><path class="cls-4" d="M157,385.93H129a10,10,0,0,1-10-10v-28a10,10,0,0,1,10-10h28a10,10,0,0,1,10,10v28A10,10,0,0,1,157,385.93Z"/><path class="cls-4" d="M222,385.93H194a10,10,0,0,1-10-10v-28a10,10,0,0,1,10-10h28a10,10,0,0,1,10,10v28A10,10,0,0,1,222,385.93Z"/><path class="cls-4" d="M287,385.93H259a10,10,0,0,1-10-10v-28a10,10,0,0,1,10-10h28a10,10,0,0,1,10,10v28A10,10,0,0,1,287,385.93Z"/><path class="cls-4" d="M325.1,495.43a14.3,14.3,0,0,1-10.3-4.3,14.49,14.49,0,1,1,10.3,4.3Zm0-19.2a4.55,4.55,0,1,0,3.2,1.3,4.22,4.22,0,0,0-3.2-1.3Z"/><path class="cls-4" d="M154.8,71a14.2,14.2,0,0,1-10.3-4.3A14.61,14.61,0,1,1,154.8,71Zm0-19.2a4.55,4.55,0,0,0-3.3,7.8,4.45,4.45,0,0,0,3.3,1.3,4.87,4.87,0,0,0,3.3-1.3,4.55,4.55,0,0,0-3.3-7.8Z"/><path class="cls-4" d="M204.1,27.93H201v-3.1a5.15,5.15,0,0,0-4-5.1,5,5,0,0,0-6,4.9v3.3h-3.1a5.15,5.15,0,0,0-5.1,4,5,5,0,0,0,4.9,6H191V41a5.15,5.15,0,0,0,4,5.1,5,5,0,0,0,6-4.9v-3.3h3.2a5,5,0,1,0-.1-10Z"/><path class="cls-4" d="M287.1,444.93H284v-3.1a5.15,5.15,0,0,0-4-5.1,5,5,0,0,0-6,4.9v3.3h-3.1a5.15,5.15,0,0,0-5.1,4,5,5,0,0,0,4.9,6H274V458a5.15,5.15,0,0,0,4,5.1,5,5,0,0,0,6-4.9v-3.3h3.3a5,5,0,0,0,4.9-6A5.15,5.15,0,0,0,287.1,444.93Z"/><path class="cls-4" d="M68.1,444.93H65v-3.1a5.15,5.15,0,0,0-4-5.1,5,5,0,0,0-6,4.9v3.3H51.9a5.15,5.15,0,0,0-5.1,4,5,5,0,0,0,4.9,6H55V458a5.15,5.15,0,0,0,4,5.1,5,5,0,0,0,6-4.9v-3.3h3.3a5,5,0,0,0,4.9-6A5.15,5.15,0,0,0,68.1,444.93Z"/><path class="cls-5" d="M378,108.93H346v-7a15,15,0,0,0-15-15H315a11,11,0,0,0-11,11v11H268v-11a11,11,0,0,0-11-11H237a11,11,0,0,0-11,11v11H190v-11a11,11,0,0,0-11-11H159a11,11,0,0,0-11,11v11H112v-11a11,11,0,0,0-11-11H83.2A13.19,13.19,0,0,0,70,100.13v8.8H35a21.94,21.94,0,0,0-22,22v271.8a22.15,22.15,0,0,0,22.2,22.2h73.1a1.14,1.14,0,0,0,.8-.3c4.6-4.4,1.5-9.7-2.7-9.7H38a15,15,0,0,1-15-15v-216H393v134.7a5.15,5.15,0,0,0,4,5.1,5,5,0,0,0,6-4.9V133.93a25,25,0,0,0-25-25Zm-59-12h12a5,5,0,0,1,5,5v31a5,5,0,0,1-5,5H319a5,5,0,0,1-5-5v-31A5,5,0,0,1,319,96.93Zm-78,0h12a5,5,0,0,1,5,5v31a5,5,0,0,1-5,5H241a5,5,0,0,1-5-5v-31A5,5,0,0,1,241,96.93Zm-78,0h12a5,5,0,0,1,5,5v31a5,5,0,0,1-5,5H163a5,5,0,0,1-5-5v-31A5,5,0,0,1,163,96.93Zm-78,0H97a5,5,0,0,1,5,5v31a5,5,0,0,1-5,5H85a5,5,0,0,1-5-5v-31A5,5,0,0,1,85,96.93Zm-62,77v-40a15,15,0,0,1,15-15H70v14a15,15,0,0,0,15,15H97a15,15,0,0,0,15-15v-14h36v14a15,15,0,0,0,15,15h12a15,15,0,0,0,15-15v-14h36v14a15,15,0,0,0,15,15h12a15,15,0,0,0,15-15v-14h36v14a15,15,0,0,0,15,15h12a15,15,0,0,0,15-15v-14h32a15,15,0,0,1,15,15v40Z"/><path class="cls-5" d="M393,345.33v52.8a16.77,16.77,0,0,1-16.8,16.8H132.4a1.14,1.14,0,0,0-.8.3c-4.6,4.4-1.5,9.7,2.7,9.7H379.2a23.69,23.69,0,0,0,23.7-23.7v-53.9c0-4.3-5.3-7.3-9.7-2.7a1.17,1.17,0,0,0-.2.7Z"/></g></g></svg>