<svg xmlns="http://www.w3.org/2000/svg" xmlns:xlink="http://www.w3.org/1999/xlink" viewBox="0 0 512.04 411.17"><defs><style>.cls-1{fill:url(#Безымянный_градиент_7);}.cls-2,.cls-3{fill:#e5e009;}.cls-2{opacity:0.11;isolation:isolate;}.cls-4{fill:#fff;}.cls-5{fill:#27348b;}</style><linearGradient id="Безымянный_градиент_7" x1="776.11" y1="-7259.68" x2="866.11" y2="-7726.16" gradientTransform="matrix(1, 0, 0, -1, -561.6, -7339.77)" gradientUnits="userSpaceOnUse"><stop offset="0" stop-color="#d2dbfc" stop-opacity="0"/><stop offset="1" stop-color="#e5e009"/></linearGradient></defs><g id="Слой_2" data-name="Слой 2"><g id="Capa_1" data-name="Capa 1"><path class="cls-1" d="M471.52,70.41c-65.4-50.3-128.9-9.3-199.6-23.8C200.62,32,172.22-16.59,91,5.81c-72,19.9-115.6,99.6-76.1,166.3,11.3,19,30.5,33.4,38.3,54.6,12.7,34.3-6.6,60.7-2.8,94.4,15.6,140.1,229.6,85.8,308.3,42.2C482.22,295,565.72,142.81,471.52,70.41Z"/><path class="cls-2" d="M413.62,358H393V156.91a12.76,12.76,0,0,0-12.8-12.8H313v-10.5a10.5,10.5,0,0,0-10.5-10.5H289V94.31c0-25-17.8-46.8-42.5-50.8A51,51,0,0,0,187,93.61v29.5h-6.9a17.09,17.09,0,0,0-17.1,17.1v3.9h-59.3A20.87,20.87,0,0,0,82.92,165v193.1H62.52A12.5,12.5,0,0,0,50,370.61v11.5a21.89,21.89,0,0,0,21.8,22h332.4a21.89,21.89,0,0,0,21.8-22v-11.6a12.48,12.48,0,0,0-12.4-12.5ZM210,94a28.11,28.11,0,0,1,34.3-27.5c12.8,2.8,21.7,14.5,21.7,27.6V124H210V94Z"/><path class="cls-3" d="M296.62,135.11a11.59,11.59,0,0,1-12.6-11.5V76.21c0-13.1-9-24.8-21.8-27.6A28.08,28.08,0,0,0,228,75.91v47.3c0,6-4.5,11.3-10.4,11.8a11.59,11.59,0,0,1-12.6-11.5V76.31c0-25,17.8-46.8,42.5-50.8A51,51,0,0,1,307,75.81v47.3C307,129.31,302.52,134.61,296.62,135.11Z"/><path class="cls-4" d="M411,146.91V356a5,5,0,0,1-5,5H101V146.91a20.89,20.89,0,0,1,20.9-20.9h268.3A20.87,20.87,0,0,1,411,146.91Z"/><path class="cls-3" d="M376,286H137a5,5,0,0,1-5-5V221a5,5,0,0,1,5-5H376a5,5,0,0,1,5,5v60A5,5,0,0,1,376,286Z"/><path class="cls-3" d="M411,315v41a5,5,0,0,1-5,5H101V315Z"/><path class="cls-4" d="M444,352.71v11.4a21.89,21.89,0,0,1-21.9,21.9H89.92A21.89,21.89,0,0,1,68,364.11v-11.6A12.5,12.5,0,0,1,80.52,340h107.1a4.77,4.77,0,0,1,4.4,2.7l6.6,12.6A5,5,0,0,0,203,358H309a4.77,4.77,0,0,0,4.4-2.7l6.6-12.6a5,5,0,0,1,4.4-2.7h107.1a12.61,12.61,0,0,1,12.5,12.7Z"/><path class="cls-4" d="M149,358H106a5,5,0,0,1-5-5V340h53v13A5,5,0,0,1,149,358Z"/><path class="cls-4" d="M405,358H362a5,5,0,0,1-5-5V340h53v13A5,5,0,0,1,405,358Z"/><path class="cls-4" d="M313.92,245H199.12a17.09,17.09,0,0,1-17.1-17.1V122.11a17.09,17.09,0,0,1,17.1-17.1H314a17.09,17.09,0,0,1,17.1,17.1V228A17.16,17.16,0,0,1,313.92,245Z"/><path class="cls-3" d="M251.82,145.81l-11,22.2a15.46,15.46,0,0,0,0,13.9l11,22.2a4.75,4.75,0,0,0,8.5,0l11-22.2a15.46,15.46,0,0,0,0-13.9l-11-22.2a4.75,4.75,0,0,0-8.5,0Z"/><path class="cls-3" d="M99.72,102.61a14.3,14.3,0,0,1-10.3-4.3,14.64,14.64,0,1,1,23.5-16.8,10.84,10.84,0,0,1,.8,1.9,14.53,14.53,0,0,1-3.6,14.8h0a14.39,14.39,0,0,1-10.4,4.4Zm0-19.2a4.73,4.73,0,0,0-3.8,1.9,4.6,4.6,0,0,0,7,5.9h0a4.45,4.45,0,0,0,1.3-3.3,4.87,4.87,0,0,0-1.3-3.3A4.54,4.54,0,0,0,99.72,83.41Z"/><path class="cls-3" d="M171.12,88.31a14.62,14.62,0,0,1-13.1-8.1,10.84,10.84,0,0,1-.8-1.9,14.72,14.72,0,0,1,3.6-15A14.6,14.6,0,1,1,181.42,84h0a14.37,14.37,0,0,1-10.3,4.3Zm0-19.1a4.6,4.6,0,0,0-3.3,1.3,4.45,4.45,0,0,0-1.3,3.3,4.87,4.87,0,0,0,1.3,3.3,4.53,4.53,0,0,0,3.3,1.4,4.87,4.87,0,0,0,3.3-1.3h0a1.45,1.45,0,0,0,1.5-1.4C176.32,71.31,173.72,69.21,171.12,69.21Z"/><path class="cls-3" d="M453.12,305H450v-3.1a5.15,5.15,0,0,0-4-5.1,5,5,0,0,0-6,4.9V305h-3.1a5.15,5.15,0,0,0-5.1,4,5,5,0,0,0,4.9,6H440v3.1a5.15,5.15,0,0,0,4,5.1,5,5,0,0,0,6-4.9V315h3.3a5,5,0,0,0,4.9-6A5.15,5.15,0,0,0,453.12,305Z"/><path class="cls-3" d="M76.12,295H73v-3.1a5.15,5.15,0,0,0-4-5.1,5,5,0,0,0-6,4.9V295h-3.1a5.15,5.15,0,0,0-5.1,4,5,5,0,0,0,4.9,6H63v3.1a5.15,5.15,0,0,0,4,5.1,5,5,0,0,0,6-4.9V305h3.3a5,5,0,0,0,4.9-6A5.15,5.15,0,0,0,76.12,295Z"/><path class="cls-3" d="M139.12,39H136v-3.1a5.15,5.15,0,0,0-4-5.1,5,5,0,0,0-6,4.9V39h-3.1a5.15,5.15,0,0,0-5.1,4,5,5,0,0,0,4.9,6H126v3.1a5.15,5.15,0,0,0,4,5.1,5,5,0,0,0,6-4.9V49h3.3a5,5,0,0,0,4.9-6A5.15,5.15,0,0,0,139.12,39Z"/><path class="cls-5" d="M264.72,331h-17.2a5.15,5.15,0,0,0-5.1,4,5,5,0,0,0,4.9,6h17.2a5.15,5.15,0,0,0,5.1-4,5,5,0,0,0-4.9-6Z"/><path class="cls-5" d="M264.72,143.61a9.78,9.78,0,0,0-8.7-5.4,9.67,9.67,0,0,0-8.7,5.4l-11,22.2a21,21,0,0,0,0,18.3l11,22.2a9.78,9.78,0,0,0,8.7,5.4,9.67,9.67,0,0,0,8.7-5.4l11-22.2a21,21,0,0,0,0-18.3Zm-8.5,4.4h0l-4.5-2.2Zm10.6,31.7L256,201.41l-10.8-21.7a10.38,10.38,0,0,1,0-9.4l10.8-21.7,10.8,21.7A11,11,0,0,1,266.82,179.71Z"/><path class="cls-5" d="M385.52,207.41a16.6,16.6,0,1,0-33.2,0,16.33,16.33,0,0,0,4.8,11.6,16.75,16.75,0,0,0-4.8,11.6,5,5,0,1,0,10,0,6.6,6.6,0,1,1,13.2,0,5,5,0,0,0,10,0,16.33,16.33,0,0,0-4.8-11.6A16.57,16.57,0,0,0,385.52,207.41Zm-16.7-6.6a6.6,6.6,0,1,1-6.6,6.6A6.66,6.66,0,0,1,368.82,200.81Z"/><path class="cls-5" d="M431.52,335.31h-15.7V147.11a25.8,25.8,0,0,0-25.8-25.8h-54.5a22.13,22.13,0,0,0-22-20.9h-1.6V75.91a55.8,55.8,0,1,0-111.6,0v24.5h-1.6a22.06,22.06,0,0,0-22,20.9h-54.5a25.8,25.8,0,0,0-25.8,25.8v188.2H80.52A17.52,17.52,0,0,0,63,352.81v11.5a27,27,0,0,0,26.9,26.9,5,5,0,1,0,0-10A16.94,16.94,0,0,1,73,364.31v-11.5a7.55,7.55,0,0,1,7.5-7.5h15.8v8.1a10,10,0,0,0,10,10h43.3a10,10,0,0,0,10-10v-8.1h27.9l6.6,12.3a9.84,9.84,0,0,0,8.8,5.3h106a9.84,9.84,0,0,0,8.8-5.3l6.6-12.3h27.8v8.1a10,10,0,0,0,10,10h43.3a10,10,0,0,0,10-10v-8.1h15.9a7.55,7.55,0,0,1,7.5,7.5v11.5a16.94,16.94,0,0,1-16.9,16.9H118a5,5,0,1,0,0,10H422a27,27,0,0,0,26.9-26.9v-11.5a17.43,17.43,0,0,0-17.4-17.5ZM210.22,75.81a45.8,45.8,0,0,1,91.6,0v24.5h-13V75.81a32.8,32.8,0,0,0-65.6,0v24.5h-13V75.81Zm68.6,24.6h-45.5V75.91a22.8,22.8,0,1,1,45.6,0l-.1,24.5Zm-156.7,30.9h54.5v96.9a22.11,22.11,0,0,0,22.1,22.1h114.7a22.11,22.11,0,0,0,22.1-22.1v-73.8a5,5,0,1,0-10,0v73.8a12.14,12.14,0,0,1-12.1,12.1H198.62a12.14,12.14,0,0,1-12.1-12.1V122.41a12.14,12.14,0,0,1,12.1-12.1h114.7a12.14,12.14,0,0,1,12.1,12.1v3.9a5,5,0,0,0,5,5h59.5a15.83,15.83,0,0,1,15.8,15.8v163.3H106.22V147.11a15.86,15.86,0,0,1,15.9-15.8Zm27.6,222.1h-43.3v-8.1h43.3Zm165.9-12.8-6.6,12.3H203l-6.6-12.3a9.84,9.84,0,0,0-8.8-5.3h-81.4v-14.8h299.5v14.8h-81.4a9.8,9.8,0,0,0-8.7,5.3Zm46.6,12.8v-8.1h43.3v8.1Z"/></g></g></svg>