<svg xmlns="http://www.w3.org/2000/svg" xmlns:xlink="http://www.w3.org/1999/xlink" viewBox="0 0 484.84 512.03"><defs><style>.cls-1{fill:url(#Безымянный_градиент_22);}.cls-2,.cls-3{fill:#e5e009;}.cls-2{opacity:0.11;isolation:isolate;}.cls-4{fill:#fff;}.cls-5{fill:#27348b;}</style><linearGradient id="Безымянный_градиент_22" x1="834.12" y1="-5223.87" x2="759.04" y2="-5599.26" gradientTransform="matrix(1, 0, 0, -1, -561.6, -5110.97)" gradientUnits="userSpaceOnUse"><stop offset="0" stop-color="#d2dbfc" stop-opacity="0"/><stop offset="1" stop-color="#e5e009"/></linearGradient></defs><g id="Слой_2" data-name="Слой 2"><g id="Capa_1" data-name="Capa 1"><path class="cls-1" d="M24.5,134.71C44.5,77,82.1-23.09,162.3,4.81c31.2,10.9,41,52.2,72.4,57.3,29.6,4.9,54.7-24.3,82.9-29.8,35-6.9,72.1,2.3,85.4,36.5,15.9,40.9-31,86.7-19.7,124.1,18.7,61.6,87.9-40.5,100.2,58.9,17.3,139-136.8,386.5-240.6,183C190.3,331.61,135.1,404,53,352.61-25,303.91-.8,208,24.5,134.71Z"/><path class="cls-2" d="M430.3,385.71a113,113,0,0,0-35-70.9,106.36,106.36,0,0,0-18.5-14.1h25.6a10,10,0,0,0,10-10v-78a10,10,0,0,0-10-10H324.6a9.83,9.83,0,0,0-7.5,3.4c-25-67.2-56.9-112.4-77.4-136.9a20.07,20.07,0,0,0-30.8,0c-5.2,6.2-11.1,13.8-17.5,22.7V61a9.28,9.28,0,0,0-9.3-9.3H96.8A9.28,9.28,0,0,0,87.5,61v69.3a9.28,9.28,0,0,0,9.3,9.3h64.8c-20.1,37.2-40.3,86-53.2,146.8A112.93,112.93,0,0,0,18,385.71a10,10,0,0,0,10,10.9H95.9c-.1,2.2-.2,4.3-.2,6.5a19.92,19.92,0,0,0,20,20.5h28.5l-6.3,12-12,22.4a10,10,0,0,0,8.8,14.6h16.7v14a10,10,0,0,0,10,10h16a10,10,0,0,0,10-10v-14h74v14a10,10,0,0,0,10,10h16a10,10,0,0,0,10-10v-14h16.7a10,10,0,0,0,8.8-14.6l-11.8-22.4-6.3-12h28.5a20,20,0,0,0,20-20.6c-.1-2.2-.1-4.3-.2-6.4h66.3a10.93,10.93,0,0,0,10.9-10.9Z"/><path class="cls-3" d="M195.4,478.61h-16a10,10,0,0,1-10-10v-31h36v31A10,10,0,0,1,195.4,478.61Z"/><path class="cls-3" d="M305.4,478.61h-16a10,10,0,0,1-10-10v-31h36v31A10,10,0,0,1,305.4,478.61Z"/><path class="cls-4" d="M332.2,454.61H152.6a10.06,10.06,0,0,1-8.9-14.7l11.9-22.5,10.5-19.8H318.8l10.5,19.8,11.9,22.5a10.17,10.17,0,0,1-9,14.7Z"/><path class="cls-4" d="M437.8,378.61H335.4V266.31a113.07,113.07,0,0,1,112.4,101.4,10,10,0,0,1-10,10.9Z"/><path class="cls-4" d="M37,367.71a113,113,0,0,1,112.4-101.4v112.4H47A10.14,10.14,0,0,1,37,367.71Z"/><path class="cls-4" d="M227,51.21C190.8,94.71,118.5,203.81,113.4,385a20,20,0,0,0,20,20.6h218a20,20,0,0,0,20-20.6c-5.2-181.2-77.4-290.3-113.6-333.9A20,20,0,0,0,227,51.21Z"/><path class="cls-3" d="M277.9,77.51a54.34,54.34,0,0,1-71,0c7.3-10.6,14.2-19.4,20.1-26.5a20.07,20.07,0,0,1,30.8,0C263.7,58.21,270.5,67,277.9,77.51Z"/><path class="cls-3" d="M271.4,404.61h-57v-95a5,5,0,0,1,5-5h47a5,5,0,0,1,5,5Z"/><path class="cls-3" d="M420.4,282.61h-78a10,10,0,0,1-10-10v-78a10,10,0,0,1,10-10h78a10,10,0,0,1,10,10v78A10,10,0,0,1,420.4,282.61Z"/><path class="cls-4" d="M209.4,43v69.3a9.28,9.28,0,0,1-9.3,9.3H114.8a9.28,9.28,0,0,1-9.3-9.3V43a9.28,9.28,0,0,1,9.3-9.3h85.3A9.22,9.22,0,0,1,209.4,43Z"/><path class="cls-5" d="M147.3,62.61H130.8a5.15,5.15,0,0,1-5.1-4,5,5,0,0,1,4.9-6h16.5a5.15,5.15,0,0,1,5.1,4A5,5,0,0,1,147.3,62.61Z"/><path class="cls-3" d="M209.4,61.61v50.7a9.28,9.28,0,0,1-9.3,9.3H114.8a9.28,9.28,0,0,1-9.3-9.3V96.61h17.7a9.9,9.9,0,0,0,7.1-2.9l13.3-13.2a9.9,9.9,0,0,1,7.1-2.9h38.4a10.06,10.06,0,0,0,3.9-.8,11.08,11.08,0,0,0,3.2-2.1Z"/><path class="cls-5" d="M265.4,383.51v-65a5.15,5.15,0,0,1,4-5.1,5,5,0,0,1,6,4.9v65a5.15,5.15,0,0,1-4,5.1A5,5,0,0,1,265.4,383.51Z"/><circle class="cls-5" cx="198.7" cy="344.31" r="5.6"/><circle class="cls-5" cx="198.7" cy="327.41" r="5.6"/><circle class="cls-5" cx="198.7" cy="310.51" r="5.6"/><circle class="cls-4" cx="242.4" cy="180.51" r="45.1"/><path class="cls-3" d="M120.5,173.41a14.57,14.57,0,0,1-10.3-24.9,14.79,14.79,0,0,1,10.3-4.3,14.2,14.2,0,0,1,10.3,4.3,14.67,14.67,0,0,1,0,20.7A15.24,15.24,0,0,1,120.5,173.41Zm0-19.2a5.07,5.07,0,0,0-3.3,1.3,4.53,4.53,0,0,0-1.4,3.3,4.87,4.87,0,0,0,1.3,3.3,4.6,4.6,0,0,0,6.5-6.5,3.66,3.66,0,0,0-3.1-1.4Z"/><path class="cls-3" d="M332.2,76.91a14.39,14.39,0,0,1-10.6-4.6,14.75,14.75,0,0,1-.2-19.9,14.61,14.61,0,1,1,21.1,20.2h0A14.2,14.2,0,0,1,332.2,76.91Zm0-19.1a4.82,4.82,0,0,0-4.7,4,2.44,2.44,0,0,0,0,1.2,4.78,4.78,0,0,0,4.7,4,5.07,5.07,0,0,0,3.3-1.3h.4a1.09,1.09,0,0,0,1.1-1c.6-4.6-2.1-6.9-4.8-6.9Z"/><path class="cls-3" d="M415.4,153.61h-3v-3.1a5.15,5.15,0,0,0-4-5.1,5,5,0,0,0-6,4.9v3.3h-3.1a5.15,5.15,0,0,0-5.1,4,5,5,0,0,0,4.9,6h3.3v3.1a5.15,5.15,0,0,0,4,5.1,5,5,0,0,0,6-4.9v-3.3h3.3a5,5,0,0,0,4.9-6,5.26,5.26,0,0,0-5.2-4Z"/><path class="cls-3" d="M100.4,184.61h-3v-3.1a5.15,5.15,0,0,0-4-5.1,5,5,0,0,0-6,4.9v3.3H84.3a5.15,5.15,0,0,0-5.1,4,5,5,0,0,0,4.9,6h3.3v3.1a5.15,5.15,0,0,0,4,5.1,5,5,0,0,0,6-4.9v-3.3h3.3a5,5,0,0,0,4.9-6A5.26,5.26,0,0,0,100.4,184.61Z"/><path class="cls-3" d="M121.4,425.61h-3v-3.1a5.15,5.15,0,0,0-4-5.1,5,5,0,0,0-6,4.9v3.3h-3.1a5.15,5.15,0,0,0-5.1,4,5,5,0,0,0,4.9,6h3.3v3.1a5.15,5.15,0,0,0,4,5.1,5,5,0,0,0,6-4.9v-3.3h3.3a5,5,0,0,0,4.9-6A5.26,5.26,0,0,0,121.4,425.61Z"/><path class="cls-5" d="M419.3,354.61H390.6a5.15,5.15,0,0,1-5.1-4,5,5,0,0,1,4.9-6h28.7a5.15,5.15,0,0,1,5.1,4,5,5,0,0,1-4.9,6Z"/><path class="cls-5" d="M94.3,354.61H65.7a5.15,5.15,0,0,1-5.1-4,5,5,0,0,1,4.9-6H94.2a5.15,5.15,0,0,1,5.1,4A5.07,5.07,0,0,1,94.3,354.61Z"/><path class="cls-5" d="M364.1,229.41a13,13,0,1,1,13-13A13,13,0,0,1,364.1,229.41Zm0-16a3,3,0,0,0-3,3,3,3,0,1,0,3-3Z"/><path class="cls-5" d="M398.4,263.71a13,13,0,1,1,13-13A13,13,0,0,1,398.4,263.71Zm0-16a3,3,0,0,0-3,3,3,3,0,1,0,3-3Z"/><path class="cls-5" d="M367,252.71a4.69,4.69,0,0,1-3.5-1.5,5,5,0,0,1,0-7.1l28.4-28.4a5,5,0,1,1,7.1,7.1l-28.4,28.4A5.08,5.08,0,0,1,367,252.71Z"/><path class="cls-5" d="M234.6,284.61h-5.4a11.82,11.82,0,0,1-11.8-11.8v-16.4a11.82,11.82,0,0,1,11.8-11.8h5.4a11.82,11.82,0,0,1,11.8,11.8v16.4a11.82,11.82,0,0,1-11.8,11.8Zm-7.2-28.2v16.4a1.79,1.79,0,0,0,1.8,1.8h5.4a1.79,1.79,0,0,0,1.8-1.8v-16.4a1.79,1.79,0,0,0-1.8-1.8h-5.4a1.79,1.79,0,0,0-1.8,1.8Z"/><path class="cls-5" d="M257.4,281.31v-26.6h-2a2,2,0,0,1-1.5-.6c-4-4.3-1.1-9.4,3.1-9.4h8.5a1.9,1.9,0,0,1,1.9,1.9v33.1c0,4.2-5.1,7.1-9.4,3.1A2.2,2.2,0,0,1,257.4,281.31Z"/><path class="cls-5" d="M242.4,130.31a50.1,50.1,0,1,0,50.1,50.1A50.19,50.19,0,0,0,242.4,130.31Zm0,90.3a40.1,40.1,0,1,1,40.1-40.1A40.16,40.16,0,0,1,242.4,220.61Z"/><path class="cls-5" d="M214.5,185.51a5,5,0,0,1-5-5,35.62,35.62,0,0,1,10.5-25.4,5,5,0,0,1,7.1,7.1,25.72,25.72,0,0,0-7.6,18.3,5.08,5.08,0,0,1-5,5Z"/><path class="cls-5" d="M453.2,366.71a117.06,117.06,0,0,0-42.6-79.2h9.6a15,15,0,0,0,15-15v-77.9a15,15,0,0,0-15-15H342.3a14.26,14.26,0,0,0-5,.9C313,117,282.9,73.51,261.7,48a25.19,25.19,0,0,0-38.6,0c-2.8,3.4-5.7,7-8.5,10.6V42.81a14.3,14.3,0,0,0-14.3-14.3H115.4a14.3,14.3,0,0,0-14.3,14.3v69a14.3,14.3,0,0,0,14.3,14.3h56.5a538.72,538.72,0,0,0-40.6,103.7q-4.65,16.65-8.4,33.9a117.8,117.8,0,0,0-91.2,103,15.09,15.09,0,0,0,3.8,11.5,14.85,14.85,0,0,0,11.2,5h61.7a9.7,9.7,0,0,1-.1,1.7,25.1,25.1,0,0,0,25,25.7h20.4l-14.3,27.1a15,15,0,0,0,13.2,22h11.7v8.8a15,15,0,0,0,15,15h15.5a15,15,0,0,0,15-15v-8.8h64.9v8.8a15,15,0,0,0,15,15h15.5a15,15,0,0,0,15-15v-8.8h11.7a14.69,14.69,0,0,0,12.8-7.3,14.84,14.84,0,0,0,.4-14.7l-14.3-27.1h20.6a25.1,25.1,0,0,0,25-25.7,9.7,9.7,0,0,0-.1-1.7h61.9a15.08,15.08,0,0,0,15-16.5ZM230.8,54.31a14.9,14.9,0,0,1,11.6-5.4,15.23,15.23,0,0,1,11.6,5.4c5.2,6.3,11,13.7,17.1,22.2a49.54,49.54,0,0,1-28.7,9.2,49.09,49.09,0,0,1-27.8-8.6v-1.8C219.9,67.91,225.4,60.81,230.8,54.31Zm-26.2,57.5a4.67,4.67,0,0,1-.3,1.7,4.27,4.27,0,0,1-4,2.6H115.4a4.27,4.27,0,0,1-4.3-4.3v-10.6h12.6a15,15,0,0,0,10.6-4.4l13.3-13.3a4.91,4.91,0,0,1,3.6-1.5h38.2a15.18,15.18,0,0,0,5.9-1.2,14,14,0,0,0,4.7-3.2l4.7-4.7-.1,38.9Zm-89.2-73.3h84.9a4.27,4.27,0,0,1,4.3,4.3v16l-11.8,11.8a4.92,4.92,0,0,1-1.5,1,4.48,4.48,0,0,1-2,.4H151.1a15,15,0,0,0-10.6,4.4l-13.3,13.3a5.09,5.09,0,0,1-3.5,1.5H111.1V42.81a4.27,4.27,0,0,1,4.3-4.3ZM46.6,373.21a4.8,4.8,0,0,1-3.7-1.7,4.75,4.75,0,0,1-1.2-3.8,108.07,108.07,0,0,1,79-93.2,669.45,669.45,0,0,0-11.8,98.6l-62.3.1ZM200,468.51a5,5,0,0,1-5,5H179.5a5,5,0,0,1-5-5v-8.8H200Zm110.3,0a5,5,0,0,1-5,5H289.8a5,5,0,0,1-5-5v-8.8h25.5ZM362.2,396a15.13,15.13,0,0,1-10.8,4.5H208.8a5,5,0,1,0,0,10h111l16.8,31.8a5,5,0,0,1-.1,4.9,4.88,4.88,0,0,1-4.3,2.4H152.7a5.19,5.19,0,0,1-4.3-2.4,4.75,4.75,0,0,1-.1-4.9l16.8-31.8h15.6a5,5,0,1,0,0-10H133.4a15.13,15.13,0,0,1-10.8-4.5,14.31,14.31,0,0,1-4.2-10.9c1.5-53.4,9.1-104.7,22.5-152.5a533,533,0,0,1,42.3-106.4h17.1a14.25,14.25,0,0,0,14.3-14.3v-23a59.36,59.36,0,0,0,62.2-4.1,487.74,487.74,0,0,1,52.4,102.5,15.26,15.26,0,0,0-1.9,7.3v29.1a5,5,0,0,0,10,0v-29.1a5,5,0,0,1,5-5h77.9a5,5,0,0,1,5,5v77.9a5,5,0,0,1-5,5H342.3a5,5,0,0,1-5-5v-20.8a5,5,0,1,0-10,0v20.8a15,15,0,0,0,15,15h14.3a658.48,658.48,0,0,1,9.9,97.6,14.77,14.77,0,0,1-4.3,10.9Zm79.8-24.5a5,5,0,0,1-3.7,1.7H376.1a662.79,662.79,0,0,0-9.3-85.7h26.8a107.19,107.19,0,0,1,49.7,80.2,5.2,5.2,0,0,1-1.3,3.8Z"/></g></g></svg>