<svg xmlns="http://www.w3.org/2000/svg" xmlns:xlink="http://www.w3.org/1999/xlink" viewBox="0 0 36.47 19.41"><defs><style>.cls-1{fill:none;}.cls-2{clip-path:url(#clip-path);}.cls-3{fill:#27348b;}.cls-4{fill:#e5e009;}</style><clipPath id="clip-path" transform="translate(0 -0.08)"><rect class="cls-1" width="36.47" height="19.56"/></clipPath></defs><g id="Слой_2" data-name="Слой 2"><g id="Слой_9" data-name="Слой 9"><g class="cls-2"><path class="cls-3" d="M34.19,7.65,26.62,6.42a.68.68,0,0,1-.53-.4l-1.3-3.4A4,4,0,0,0,21.09.08h-14A3.42,3.42,0,0,0,3.72,2.74a14.59,14.59,0,0,1-2.05,5,9.52,9.52,0,0,0-1.6,4.13,9.34,9.34,0,0,0,.52,4.38,1.8,1.8,0,0,0,1.69,1.18H3.67a3.47,3.47,0,0,0,6.37,0h4.45a.71.71,0,0,0,0-1.42H10.32a3.5,3.5,0,0,0-3.46-3.42A3.51,3.51,0,0,0,3.39,16H2.28a.37.37,0,0,1-.35-.25,8.46,8.46,0,0,1-.51-2.35h.91a.72.72,0,0,0,0-1.43H1.5A7.84,7.84,0,0,1,2.84,8.51,16,16,0,0,0,5.11,3.06a2,2,0,0,1,2-1.56h14a2.54,2.54,0,0,1,2.37,1.63l1.31,3.42a2.11,2.11,0,0,0,1.62,1.28L34,9.06A1.27,1.27,0,0,1,35,10.25H33.83A1.73,1.73,0,0,0,32.1,12v.85a1.73,1.73,0,0,0,1.73,1.74h.67a2.68,2.68,0,0,0-.16.93v.33a.14.14,0,0,1-.14.14H31.4a3.47,3.47,0,0,0-6.94,0H20.8a.71.71,0,1,0,0,1.42h3.95a3.47,3.47,0,0,0,6.37,0H34.2a1.56,1.56,0,0,0,1.56-1.56V15.5a2.6,2.6,0,0,1,.4-1.13,2.92,2.92,0,0,0,.31-1.29V10.33a2.71,2.71,0,0,0-2.28-2.68ZM6.86,18.06a2,2,0,1,1,0-4.08,2,2,0,1,1,0,4.08Zm21.07,0a2.06,2.06,0,0,1-2-2A2,2,0,0,1,30,16a2.07,2.07,0,0,1-2.05,2Zm5.59-5.23V12a.31.31,0,0,1,.31-.31H35v1.47H33.83a.31.31,0,0,1-.31-.31Z" transform="translate(0 -0.08)"/></g><path class="cls-4" d="M15.51,7.7h6.33A1.27,1.27,0,0,0,23,6L22.1,3.53a1.29,1.29,0,0,0-1.19-.82h-5.4A1.28,1.28,0,0,0,14.23,4V6.43A1.27,1.27,0,0,0,15.51,7.7Zm.15-3.56H20.8l.82,2.14h-6Z" transform="translate(0 -0.08)"/><path class="cls-4" d="M7.75,2.71a1.26,1.26,0,0,0-1.23,1A22.09,22.09,0,0,1,5.79,6,1.26,1.26,0,0,0,7,7.7h4.54a1.27,1.27,0,0,0,1.28-1.27V4a1.28,1.28,0,0,0-1.28-1.28Zm3.61,3.57H7.19a22.31,22.31,0,0,0,.68-2.14h3.49Z" transform="translate(0 -0.08)"/><path class="cls-4" d="M18.36,16.41a.71.71,0,1,0-.32.89.72.72,0,0,0,.32-.89Z" transform="translate(0 -0.08)"/></g></g></svg>