<svg xmlns="http://www.w3.org/2000/svg" viewBox="0 0 32.97 36.61"><defs><style>.cls-1{fill:#27348b;}.cls-2{fill:#e5e009;}</style></defs><g id="Слой_2" data-name="Слой 2"><g id="Слой_3" data-name="Слой 3"><path class="cls-1" d="M29.4,0H3.58A3.58,3.58,0,0,0,0,3.58V33a3.58,3.58,0,0,0,3.58,3.58H29.4A3.57,3.57,0,0,0,33,33V18.38a.72.72,0,1,0-1.43,0V32.32H1.43V10H31.54v2.65a.72.72,0,0,0,1.43,0V3.58A3.57,3.57,0,0,0,29.4,0Zm2.14,8.58h-10L22.86,6.1a.73.73,0,0,1,.63-.38h8.05Zm-.12,25.17a2.16,2.16,0,0,1-2,1.43H3.58a2.16,2.16,0,0,1-2-1.43ZM1.43,3.58A2.15,2.15,0,0,1,3.58,1.43H15.24V2.85a.72.72,0,1,0,1.43,0V1.43H18.1V2.85a.72.72,0,1,0,1.43,0V1.43H29.4a2.14,2.14,0,0,1,2.14,2.15v.71h-8A2.14,2.14,0,0,0,21.6,5.43L19.92,8.58H1.43Z"/><path class="cls-2" d="M10.73,2.86A2.15,2.15,0,1,0,12.87,5a2.15,2.15,0,0,0-2.14-2.15Zm0,2.86A.72.72,0,1,1,11.44,5a.71.71,0,0,1-.71.71Z"/><path class="cls-2" d="M5,2.86A2.15,2.15,0,1,0,7.15,5,2.15,2.15,0,0,0,5,2.86ZM5,5.72A.72.72,0,1,1,5.72,5,.71.71,0,0,1,5,5.72Z"/><path class="cls-2" d="M6.76,21.17a9.73,9.73,0,1,0,9.73-9.73,9.73,9.73,0,0,0-9.73,9.73Zm18,0a8.3,8.3,0,1,1-8.29-8.3,8.3,8.3,0,0,1,8.29,8.3Z"/><path class="cls-1" d="M9.62,21.17a7,7,0,0,0,.17,1.5h0a6.87,6.87,0,0,0,13.43-.16h0a6.66,6.66,0,0,0,.13-1.33,6.87,6.87,0,1,0-13.73,0Zm6.87,5.43A5.47,5.47,0,0,1,11.37,23a5.45,5.45,0,0,1,2.57-.08,5.48,5.48,0,0,1,1.74.79,5.64,5.64,0,0,0,2.07.87,5.68,5.68,0,0,0,3.34-.52,5.45,5.45,0,0,1-4.6,2.55Zm5.43-5.43a5.12,5.12,0,0,1-.06.78A5.43,5.43,0,0,1,18,23.17a3.17,3.17,0,0,1-1-.37l-.55-.32a6.77,6.77,0,0,0-2.17-1,6.7,6.7,0,0,0-3,0l-.17,0c0-.14,0-.28,0-.42a5.44,5.44,0,1,1,10.87,0Z"/><path class="cls-2" d="M33,15.39a.71.71,0,1,1-.82-.59.71.71,0,0,1,.82.59Z"/></g></g></svg>