<svg xmlns="http://www.w3.org/2000/svg" xmlns:xlink="http://www.w3.org/1999/xlink" viewBox="0 0 36.47 32"><defs><style>.cls-1{fill:none;}.cls-2{clip-path:url(#clip-path);}.cls-3{fill:#27348b;}.cls-4{fill:#e5e009;}</style><clipPath id="clip-path" transform="translate(0 -0.05)"><rect class="cls-1" width="36.47" height="32.1"/></clipPath></defs><g id="Слой_2" data-name="Слой 2"><g id="Слой_7" data-name="Слой 7"><g class="cls-2"><path class="cls-3" d="M34.2,16.5a9.7,9.7,0,0,0-5.64-3.27.71.71,0,0,0-.26,1.4,8.25,8.25,0,0,1,6.74,8,8.14,8.14,0,0,1-6.51,7.91,2.13,2.13,0,0,1-1.65-.34A15.48,15.48,0,0,0,18.23,28a15.46,15.46,0,0,0-8.64,2.27,2.14,2.14,0,0,1-1.65.34,8.16,8.16,0,0,1-6.52-7.91A8,8,0,0,1,3.79,17,8.2,8.2,0,0,1,9.64,14.5H22.38a.72.72,0,0,0,0-1.43h-.26v-.71a2.14,2.14,0,0,0-1.75-2.1V9.51A2.12,2.12,0,0,0,19,7.5a3.57,3.57,0,0,0-3.57-3.57H8.68a1.23,1.23,0,1,1,0-2.45H29.52a.72.72,0,0,0,0-1.43H8.68a2.66,2.66,0,0,0,0,5.31h6.7A2.14,2.14,0,0,1,17.52,7.5a2.12,2.12,0,0,0-1.42,2v.75a2.13,2.13,0,0,0-1.75,2.1v.71H9.64a9.63,9.63,0,0,0-6.86,2.87A9.41,9.41,0,0,0,0,22.68,9.55,9.55,0,0,0,7.65,32a3.59,3.59,0,0,0,2.76-.58,14.3,14.3,0,0,1,7.82-2,14.25,14.25,0,0,1,7.82,2,3.55,3.55,0,0,0,2.06.65,4.15,4.15,0,0,0,.7-.07,9.55,9.55,0,0,0,7.66-9.3A9.47,9.47,0,0,0,34.2,16.5ZM17.52,10.22V9.51a.72.72,0,0,1,1.43,0v.71Zm-1.75,2.14a.71.71,0,0,1,.71-.71H20a.71.71,0,0,1,.72.71v.71H15.77Z" transform="translate(0 -0.05)"/></g><path class="cls-4" d="M27.37,17a2.08,2.08,0,1,0,2.07,2.08A2.08,2.08,0,0,0,27.37,17Zm0,2.72a.65.65,0,1,1,.65-.64.64.64,0,0,1-.65.64Z" transform="translate(0 -0.05)"/><path class="cls-4" d="M27.37,28.2a2.07,2.07,0,1,0-2.07-2.07,2.07,2.07,0,0,0,2.07,2.07Zm0-2.72a.65.65,0,1,1-.64.65.65.65,0,0,1,.64-.65Z" transform="translate(0 -0.05)"/><path class="cls-4" d="M33,22.62a2.07,2.07,0,1,0-2.07,2.07A2.08,2.08,0,0,0,33,22.62Zm-2.72,0a.65.65,0,1,1,.65.65.65.65,0,0,1-.65-.65Z" transform="translate(0 -0.05)"/><path class="cls-4" d="M23.87,24.69a2.08,2.08,0,1,0-2.07-2.07,2.07,2.07,0,0,0,2.07,2.07Zm0-2.72a.65.65,0,1,1-.65.65.65.65,0,0,1,.65-.65Z" transform="translate(0 -0.05)"/><path class="cls-4" d="M9.1,27.82a2.14,2.14,0,0,0,2.13-2.14v-.93h.93a2.14,2.14,0,0,0,0-4.27h-.93v-.92a2.14,2.14,0,1,0-4.27,0v.92H6a2.14,2.14,0,0,0,0,4.27H7v.93A2.14,2.14,0,0,0,9.1,27.82ZM6,23.33a.71.71,0,1,1,0-1.42H7.67a.71.71,0,0,0,.71-.72V19.56a.72.72,0,1,1,1.43,0v1.63a.71.71,0,0,0,.71.72h1.64a.71.71,0,0,1,0,1.42H10.52a.71.71,0,0,0-.71.71v1.64a.72.72,0,0,1-1.43,0V24a.71.71,0,0,0-.71-.71Z" transform="translate(0 -0.05)"/><path class="cls-4" d="M26.13,13.78a.71.71,0,1,1-.71-.71.71.71,0,0,1,.71.71Z" transform="translate(0 -0.05)"/></g></g></svg>