<svg width="88" height="35" viewBox="0 0 88 35" fill="none" xmlns="http://www.w3.org/2000/svg">
<path d="M30.38 10.6C30.38 12.5833 29.68 14.2983 28.28 15.745C26.88 17.1683 24.8383 18.195 22.155 18.825C23.6017 19.2217 24.6983 19.875 25.445 20.785C26.1917 21.6717 26.565 22.6983 26.565 23.865C26.565 25.7083 25.9817 27.3067 24.815 28.66C23.6717 30.0133 21.9917 31.0633 19.775 31.81C17.5583 32.5333 14.8867 32.895 11.76 32.895C10.5933 32.895 9.66 32.86 8.96 32.79C8.93667 33.4433 8.65667 33.9333 8.12 34.26C7.58333 34.5867 6.895 34.75 6.055 34.75C5.215 34.75 4.63167 34.5633 4.305 34.19C4.00167 33.8167 3.87333 33.2683 3.92 32.545C4.13 29.2783 4.53833 25.86 5.145 22.29C5.75167 18.6967 6.52167 15.2317 7.455 11.895C7.61833 11.3117 7.945 10.9033 8.435 10.67C8.925 10.4367 9.56667 10.32 10.36 10.32C11.7833 10.32 12.495 10.7167 12.495 11.51C12.495 11.8367 12.425 12.21 12.285 12.63C11.6783 14.45 11.0717 16.9233 10.465 20.05C9.85833 23.1533 9.42667 26.1167 9.17 28.94C10.29 29.0333 11.2 29.08 11.9 29.08C15.1667 29.08 17.5583 28.6133 19.075 27.68C20.615 26.7233 21.385 25.51 21.385 24.04C21.385 23.0133 20.9417 22.15 20.055 21.45C19.1917 20.75 17.7333 20.365 15.68 20.295C15.2133 20.2717 14.8867 20.155 14.7 19.945C14.5133 19.735 14.42 19.3967 14.42 18.93C14.42 18.2533 14.56 17.705 14.84 17.285C15.12 16.865 15.6333 16.6433 16.38 16.62C18.0367 16.5733 19.53 16.3283 20.86 15.885C22.2133 15.4417 23.275 14.8233 24.045 14.03C24.815 13.2133 25.2 12.2683 25.2 11.195C25.2 9.84167 24.535 8.78 23.205 8.01C21.875 7.21667 19.8333 6.82 17.08 6.82C14.5833 6.82 12.1683 7.14667 9.835 7.8C7.50167 8.43 5.51833 9.235 3.885 10.215C3.13833 10.6583 2.50833 10.88 1.995 10.88C1.575 10.88 1.24833 10.74 1.015 10.46C0.805 10.1567 0.7 9.78333 0.7 9.34C0.7 8.75667 0.816667 8.255 1.05 7.835C1.30667 7.415 1.90167 6.93666 2.835 6.4C4.795 5.28 7.09333 4.405 9.73 3.775C12.3667 3.145 15.0617 2.83 17.815 2.83C22.0383 2.83 25.1883 3.54166 27.265 4.965C29.3417 6.38833 30.38 8.26667 30.38 10.6ZM34.5316 14.38C33.5516 14.38 32.8166 14.1583 32.3266 13.715C31.8366 13.2483 31.5916 12.6067 31.5916 11.79C31.5916 10.9733 31.9066 10.2967 32.5366 9.76C33.1899 9.2 33.9949 8.92 34.9516 8.92C35.8149 8.92 36.5149 9.13 37.0516 9.55C37.5883 9.97 37.8566 10.565 37.8566 11.335C37.8566 12.2683 37.5533 13.015 36.9466 13.575C36.3399 14.1117 35.5349 14.38 34.5316 14.38ZM34.2516 33.175C32.7349 33.175 31.6266 32.6383 30.9266 31.565C30.2499 30.4917 29.9116 29.0683 29.9116 27.295C29.9116 26.245 30.0399 24.9033 30.2966 23.27C30.5766 21.6133 30.9266 20.0733 31.3466 18.65C31.5566 17.9033 31.8366 17.39 32.1866 17.11C32.5366 16.83 33.0966 16.69 33.8666 16.69C35.0566 16.69 35.6516 17.0867 35.6516 17.88C35.6516 18.4633 35.4299 19.8167 34.9866 21.94C34.4266 24.5067 34.1466 26.245 34.1466 27.155C34.1466 27.855 34.2399 28.3917 34.4266 28.765C34.6133 29.1383 34.9283 29.325 35.3716 29.325C35.7916 29.325 36.3166 29.0333 36.9466 28.45C37.5766 27.8667 38.4166 26.945 39.4666 25.685C39.7466 25.3583 40.0616 25.195 40.4116 25.195C40.7149 25.195 40.9483 25.335 41.1116 25.615C41.2983 25.895 41.3916 26.28 41.3916 26.77C41.3916 27.7033 41.1699 28.4267 40.7266 28.94C38.4166 31.7633 36.2583 33.175 34.2516 33.175ZM56.4099 22.255C56.7132 22.255 56.9466 22.4067 57.1099 22.71C57.2732 23.0133 57.3549 23.3983 57.3549 23.865C57.3549 24.985 57.0166 25.65 56.3399 25.86C54.9399 26.35 53.3999 26.63 51.7199 26.7C51.2766 28.66 50.4016 30.235 49.0949 31.425C47.7882 32.5917 46.3065 33.175 44.6499 33.175C43.2499 33.175 42.0482 32.8367 41.0449 32.16C40.0649 31.4833 39.3182 30.585 38.8049 29.465C38.2915 28.345 38.0349 27.1317 38.0349 25.825C38.0349 24.0517 38.3732 22.4767 39.0499 21.1C39.7265 19.7 40.6599 18.615 41.8499 17.845C43.0399 17.0517 44.3582 16.655 45.8049 16.655C47.5782 16.655 49.0016 17.2733 50.0749 18.51C51.1716 19.7233 51.8132 21.2283 51.9999 23.025C53.0966 22.955 54.4032 22.7217 55.9199 22.325C56.1066 22.2783 56.2699 22.255 56.4099 22.255ZM44.9299 29.465C45.6766 29.465 46.3182 29.1617 46.8549 28.555C47.4149 27.9483 47.7882 27.0733 47.9749 25.93C47.2515 25.44 46.6916 24.7983 46.2949 24.005C45.9216 23.2117 45.7349 22.3717 45.7349 21.485C45.7349 21.1117 45.7699 20.7383 45.8399 20.365H45.6649C44.7315 20.365 43.9499 20.82 43.3199 21.73C42.7132 22.6167 42.4099 23.8767 42.4099 25.51C42.4099 26.7933 42.6549 27.7733 43.1449 28.45C43.6582 29.1267 44.2532 29.465 44.9299 29.465ZM67.6159 25.195C67.9192 25.195 68.1526 25.335 68.3159 25.615C68.5026 25.895 68.5959 26.28 68.5959 26.77C68.5959 27.7033 68.3742 28.4267 67.9309 28.94C66.9276 30.1767 65.8309 31.1917 64.6409 31.985C63.4742 32.7783 62.1442 33.175 60.6509 33.175C58.5976 33.175 57.0692 32.2417 56.0659 30.375C55.0859 28.5083 54.5959 26.0933 54.5959 23.13C54.5959 20.2833 54.9576 17.04 55.6809 13.4C56.4276 9.76 57.5126 6.63333 58.9359 4.02C60.3826 1.40666 62.0976 0.099998 64.0809 0.099998C65.2009 0.099998 66.0759 0.624998 66.7059 1.675C67.3592 2.70167 67.6859 4.18333 67.6859 6.12C67.6859 8.89667 66.9159 12.1167 65.3759 15.78C63.8359 19.4433 61.7476 23.0717 59.1109 26.665C59.2742 27.6217 59.5426 28.31 59.9159 28.73C60.2892 29.1267 60.7792 29.325 61.3859 29.325C62.3426 29.325 63.1826 29.0567 63.9059 28.52C64.6292 27.96 65.5509 27.015 66.6709 25.685C66.9509 25.3583 67.2659 25.195 67.6159 25.195ZM63.3109 3.565C62.7742 3.565 62.1676 4.53333 61.4909 6.47C60.8142 8.40667 60.2192 10.81 59.7059 13.68C59.1926 16.55 58.9126 19.3033 58.8659 21.94C60.5226 19.21 61.8409 16.48 62.8209 13.75C63.8009 10.9967 64.2909 8.48833 64.2909 6.225C64.2909 4.45167 63.9642 3.565 63.3109 3.565ZM70.3519 14.38C69.3719 14.38 68.6369 14.1583 68.1469 13.715C67.6569 13.2483 67.4119 12.6067 67.4119 11.79C67.4119 10.9733 67.7269 10.2967 68.3569 9.76C69.0102 9.2 69.8152 8.92 70.7719 8.92C71.6352 8.92 72.3352 9.13 72.8719 9.55C73.4086 9.97 73.6769 10.565 73.6769 11.335C73.6769 12.2683 73.3736 13.015 72.7669 13.575C72.1602 14.1117 71.3552 14.38 70.3519 14.38ZM70.0719 33.175C68.5552 33.175 67.4469 32.6383 66.7469 31.565C66.0702 30.4917 65.7319 29.0683 65.7319 27.295C65.7319 26.245 65.8602 24.9033 66.1169 23.27C66.3969 21.6133 66.7469 20.0733 67.1669 18.65C67.3769 17.9033 67.6569 17.39 68.0069 17.11C68.3569 16.83 68.9169 16.69 69.6869 16.69C70.8769 16.69 71.4719 17.0867 71.4719 17.88C71.4719 18.4633 71.2502 19.8167 70.8069 21.94C70.2469 24.5067 69.9669 26.245 69.9669 27.155C69.9669 27.855 70.0602 28.3917 70.2469 28.765C70.4336 29.1383 70.7486 29.325 71.1919 29.325C71.6119 29.325 72.1369 29.0333 72.7669 28.45C73.3969 27.8667 74.2369 26.945 75.2869 25.685C75.5669 25.3583 75.8819 25.195 76.2319 25.195C76.5352 25.195 76.7686 25.335 76.9319 25.615C77.1186 25.895 77.2119 26.28 77.2119 26.77C77.2119 27.7033 76.9902 28.4267 76.5469 28.94C74.2369 31.7633 72.0786 33.175 70.0719 33.175ZM78.4052 33.175C77.0752 33.175 75.9902 32.65 75.1502 31.6C74.3335 30.55 73.9252 29.1733 73.9252 27.47C73.9252 25.6033 74.3569 23.8417 75.2202 22.185C76.0835 20.505 77.2269 19.1633 78.6502 18.16C80.0969 17.1333 81.6252 16.62 83.2352 16.62C83.7485 16.62 84.0869 16.725 84.2502 16.935C84.4369 17.1217 84.5885 17.4717 84.7052 17.985C85.1485 17.8917 85.6385 17.845 86.1752 17.845C86.7352 17.845 87.1669 17.985 87.4702 18.265C87.7735 18.545 87.9252 18.9417 87.9252 19.455C87.9252 19.9917 87.8085 20.925 87.5752 22.255C87.3185 23.6783 87.1202 25.0433 86.9802 26.35C86.8402 27.6333 86.7702 29.08 86.7702 30.69C86.7702 31.5767 86.5835 32.2183 86.2102 32.615C85.8602 32.9883 85.2769 33.175 84.4602 33.175C83.6669 33.175 83.0719 32.9883 82.6752 32.615C82.3019 32.2183 82.1152 31.5883 82.1152 30.725L82.1502 30.165C81.4269 32.1717 80.1785 33.175 78.4052 33.175ZM79.7702 29.64C80.4235 29.64 81.0185 29.185 81.5552 28.275C82.0919 27.365 82.5702 25.7433 82.9902 23.41L83.6552 19.875C82.6985 19.8983 81.8119 20.2717 80.9952 20.995C80.1785 21.695 79.5252 22.6283 79.0352 23.795C78.5452 24.9617 78.3002 26.1983 78.3002 27.505C78.3002 28.205 78.4285 28.7417 78.6852 29.115C78.9652 29.465 79.3269 29.64 79.7702 29.64Z" fill="#48D077"/>
</svg>
